<?xml version="1.0" encoding="utf-8"?>
<!-- Generator: Adobe Illustrator 18.1.1, SVG Export Plug-In . SVG Version: 6.00 Build 0)  -->
<svg version="1.1" id="Camada_1" xmlns="http://www.w3.org/2000/svg" xmlns:xlink="http://www.w3.org/1999/xlink" x="0px" y="0px"
	 viewBox="0 0 40 40.4" enable-background="new 0 0 40 40.4" xml:space="preserve">
<g>
	<g>
		<defs>
			<path id="SVGID_7_" d="M30.5,40h-21C4.2,40,0,35.8,0,30.5v-21C0,4.2,4.2,0,9.5,0h21C35.8,0,40,4.2,40,9.5v21
				C40,35.8,35.8,40,30.5,40z"/>
		</defs>
		<clipPath id="SVGID_2_">
			<use xlink:href="#SVGID_7_"  overflow="visible"/>
		</clipPath>
		<path clip-path="url(#SVGID_2_)" fill="#BE921E" d="M30.5,40h-21C4.2,40,0,35.8,0,30.5v-21C0,4.2,4.2,0,9.5,0h21
			C35.8,0,40,4.2,40,9.5v21C40,35.8,35.8,40,30.5,40z"/>
		<polygon clip-path="url(#SVGID_2_)" fill="#BE921E" points="23,6.4 26.8,4.9 58.2,33.1 58.2,53.2 51.1,53.2 16.1,34.4 18,25 
			11.4,20.8 18.4,16.8 19.7,9.3 		"/>
		<path clip-path="url(#SVGID_2_)" fill="#FFFFFF" d="M26.8,9.8V4.9h-4.1c0,0-6.6-0.3-6.6,6.6c0,4.3,0,4.3,0,4.3h-4.7v5h4.7v13.6
			h5.1V20.8h4.5l1-4.9h-5.5v-3.5c0,0,0.2-2.6,2.5-2.6C25.2,9.8,26.8,9.8,26.8,9.8z"/>
	</g>
</g>
</svg>
