<?xml version="1.0" encoding="utf-8"?>
<!-- Generator: Adobe Illustrator 18.1.1, SVG Export Plug-In . SVG Version: 6.00 Build 0)  -->
<svg version="1.1" id="Camada_1" xmlns="http://www.w3.org/2000/svg" xmlns:xlink="http://www.w3.org/1999/xlink" x="0px" y="0px"
	 viewBox="0 0 40 40.4" enable-background="new 0 0 40 40.4" xml:space="preserve">
<g>
	<g>
		<defs>
			<path id="SVGID_9_" d="M30.5,40.2h-21c-5.2,0-9.5-4.2-9.5-9.5v-21c0-5.2,4.2-9.5,9.5-9.5h21c5.2,0,9.5,4.2,9.5,9.5v21
				C40,35.9,35.8,40.2,30.5,40.2z"/>
		</defs>
		<clipPath id="SVGID_2_">
			<use xlink:href="#SVGID_9_"  overflow="visible"/>
		</clipPath>
		<path clip-path="url(#SVGID_2_)" fill="#FFFFFF" d="M30.5,40.2h-21c-5.2,0-9.5-4.2-9.5-9.5v-21c0-5.2,4.2-9.5,9.5-9.5h21
			c5.2,0,9.5,4.2,9.5,9.5v21C40,35.9,35.8,40.2,30.5,40.2z"/>
		<polygon opacity="0.16" clip-path="url(#SVGID_2_)" fill="#BE921E" points="23,6.6 26.8,5.1 58.2,33.3 58.2,53.4 51.1,53.4 
			16.1,34.6 18,25.2 11.4,21 18.4,16.9 19.7,9.5 		"/>
		<path clip-path="url(#SVGID_2_)" fill="#BE921E" d="M26.8,10V5.1h-4.1c0,0-6.6-0.3-6.6,6.6c0,4.3,0,4.3,0,4.3h-4.7v5h4.7v13.6h5.1
			V21h4.5l1-4.9h-5.5v-3.5c0,0,0.2-2.6,2.5-2.6C25.2,10,26.8,10,26.8,10z"/>
	</g>
</g>
</svg>
