<?xml version="1.0" encoding="utf-8"?>
<!-- Generator: Adobe Illustrator 18.1.1, SVG Export Plug-In . SVG Version: 6.00 Build 0)  -->
<svg version="1.1" id="Camada_1" xmlns="http://www.w3.org/2000/svg" xmlns:xlink="http://www.w3.org/1999/xlink" x="0px" y="0px"
	 viewBox="0 0 40 40.4" enable-background="new 0 0 40 40.4" xml:space="preserve">
<g>
	<g>
		<defs>
			<path id="SVGID_21_" d="M9.7,40.2h20.6c5.4,0,9.7-4.3,9.7-9.7V9.9c0-5.4-4.3-9.7-9.7-9.7H9.7C4.3,0.2,0,4.5,0,9.9v20.6
				C0,35.8,4.3,40.2,9.7,40.2z"/>
		</defs>
		<clipPath id="SVGID_2_">
			<use xlink:href="#SVGID_21_"  overflow="visible"/>
		</clipPath>
		<g clip-path="url(#SVGID_2_)">
			<defs>
				<path id="SVGID_23_" d="M30.5,40.2h-21c-5.2,0-9.5-4.2-9.5-9.5v-21c0-5.2,4.2-9.5,9.5-9.5h21c5.2,0,9.5,4.2,9.5,9.5v21
					C40,35.9,35.8,40.2,30.5,40.2z"/>
			</defs>
			<use xlink:href="#SVGID_23_"  overflow="visible" fill="#FFFFFF"/>
			<clipPath id="SVGID_4_">
				<use xlink:href="#SVGID_23_"  overflow="visible"/>
			</clipPath>
			<path clip-path="url(#SVGID_4_)" fill="#FFFFFF" d="M30.5,40.2h-21c-5.2,0-9.5-4.2-9.5-9.5v-21c0-5.2,4.2-9.5,9.5-9.5h21
				c5.2,0,9.5,4.2,9.5,9.5v21C40,35.9,35.8,40.2,30.5,40.2z"/>
		</g>
		<polygon opacity="0.16" clip-path="url(#SVGID_2_)" fill="#BE921E" points="54.2,32.5 32.4,9.1 31,8.4 27.9,4.5 26.1,9.6 
			20.2,4.2 11.4,4.5 8.6,4.8 5.6,9 5.6,14.2 11.4,20.4 7.2,21.6 3.3,26 4.5,30.5 27.7,51.4 51.8,51.4 		"/>
	</g>
	<path fill="#BE921E" d="M18.5,7.8c0.2,0.8,0.9,3.5-0.8,5.4c-0.9,0.9-2,1.6-2.4,1.9c-0.6,0.6-1.2,2.2,0.5,3.3s4,3.5,4.4,5.3
		c0.5,1.8,0,4.8-2.9,6.9S9.1,32,6.8,31.4s-5.2-2.2-4.5-6.1c0.3-1.6,1.9-2.7,3.1-3.5c1.7-1.1,5-1.5,5-1.5h1.9c-1.5-1-1.2-2.7-1.1-3.2
		c0.1-0.5,0.6-1.1-0.4-1c-1,0.1-2.5-0.3-2.5-0.3s-5.2-1.9-4.4-6.3c0.2-0.9,0.6-1.9,1.2-2.7c0.4-0.6,2.2-2.2,3.8-2.6
		c1.1-0.3,3-0.3,3-0.3l8.7,0l-1.9,1.5h-1.9C17.8,6.2,18.3,6.9,18.5,7.8z M7.7,11.1c0.3,0.5,0.5,1.1,0.8,1.7c1.9,2.9,4.6,1.9,4.6,1.9
		c4.5-2.7,1.3-7.9,1.3-7.9S12.4,4.1,9.6,5c-1.1,0.4-1.8,1-2.1,2C7,8.4,7.3,10.4,7.7,11.1z M5.8,27.5c0.7,1.3,2.6,3.1,7.3,2.8
		c5.2-0.3,4.5-5.2,4-6.1c-0.5-0.9-1.3-2.8-5.4-3C6.7,20.9,4.4,24.9,5.8,27.5z M32.4,8.4h-4.5V3.9h-2.4v4.5h-4.5v2.4h4.5v4.5h2.4
		v-4.5h4.5V9.1V8.4z"/>
</g>
</svg>
