<?xml version="1.0" encoding="utf-8"?>
<!-- Generator: Adobe Illustrator 18.1.1, SVG Export Plug-In . SVG Version: 6.00 Build 0)  -->
<svg version="1.1" id="Camada_1" xmlns="http://www.w3.org/2000/svg" xmlns:xlink="http://www.w3.org/1999/xlink" x="0px" y="0px"
	 viewBox="0 0 40 40.4" enable-background="new 0 0 40 40.4" xml:space="preserve">
<g>
	<g>
		<defs>
			<path id="SVGID_13_" d="M30.5,40.2h-21c-5.2,0-9.5-4.2-9.5-9.5v-21c0-5.2,4.2-9.5,9.5-9.5h21c5.2,0,9.5,4.2,9.5,9.5v21
				C40,35.9,35.8,40.2,30.5,40.2z"/>
		</defs>
		<clipPath id="SVGID_2_">
			<use xlink:href="#SVGID_13_"  overflow="visible"/>
		</clipPath>
		<path clip-path="url(#SVGID_2_)" fill="#FFFFFF" d="M30.5,40.2h-21c-5.2,0-9.5-4.2-9.5-9.5v-21c0-5.2,4.2-9.5,9.5-9.5h21
			c5.2,0,9.5,4.2,9.5,9.5v21C40,35.9,35.8,40.2,30.5,40.2z"/>
		<polygon opacity="0.16" clip-path="url(#SVGID_2_)" fill="#BE921E" points="18.5,5.7 30.5,5.7 34.3,8.7 58.2,33.3 58.2,53.4 
			30,53.4 6.1,32.5 6.1,9 		"/>
	</g>
	<path fill="#BE921E" d="M30,5.7H10c-2.5,0-4.5,2-4.5,4.5v19.9c0,2.5,2,4.5,4.5,4.5h20c2.5,0,4.5-2,4.5-4.5V10.2
		C34.5,7.7,32.5,5.7,30,5.7z M20,14.2c3.2,0,5.9,2.6,5.9,5.9S23.2,26,20,26s-5.9-2.6-5.9-5.9S16.7,14.2,20,14.2z M31.1,29.9
		c0,0.8-0.6,1.4-1.4,1.4H10.3c-0.8,0-1.4-0.6-1.4-1.4V17.5h2.2c-0.2,0.8-0.4,1.7-0.4,2.6c0,5.1,4.1,9.2,9.2,9.2
		c5.1,0,9.2-4.1,9.2-9.2c0-0.9-0.1-1.8-0.4-2.6h2.3V29.9z M31.3,12.7c0,0.8-0.6,1.4-1.4,1.4h-2.5c-0.8,0-1.4-0.6-1.4-1.4v-2.4
		c0-0.8,0.6-1.4,1.4-1.4h2.5c0.8,0,1.4,0.6,1.4,1.4V12.7z"/>
</g>
</svg>
