<?xml version="1.0" encoding="utf-8"?>
<!-- Generator: Adobe Illustrator 19.1.0, SVG Export Plug-In . SVG Version: 6.00 Build 0)  -->
<svg version="1.1" id="Camada_1" xmlns="http://www.w3.org/2000/svg" xmlns:xlink="http://www.w3.org/1999/xlink" x="0px" y="0px"
	 viewBox="0 0 235.3 153" enable-background="new 0 0 235.3 153" xml:space="preserve">
<g>
	<g>
		<defs>
			<rect id="SVGID_711_" x="0.5" width="234.8" height="153"/>
		</defs>
		<use xlink:href="#SVGID_711_"  overflow="visible" fill="#C88F00"/>
		<clipPath id="SVGID_2_">
			<use xlink:href="#SVGID_711_"  overflow="visible"/>
		</clipPath>
	</g>
	<polygon fill="#C88F00" points="235.3,99.1 162,39.2 68.8,39.2 68.8,110.8 118.9,153 235.3,153 	"/>
	<path fill="#FFFFFF" d="M162,110.8H68.8V39.2H162V110.8z M111.8,78.2c0,0,0.7,1.9,3.6,1.9c2.9,0,4-2.1,4-2.1l32.2-32.3h-72
		L111.8,78.2z M122.7,84c0,0-3,2.5-7.1,2.5c-4.2,0-7.1-2.4-7.1-2.4l-5.2-5.1l-23.6,24.1H151L127.4,79L122.7,84z M155.4,98.5V50.9
		L131.9,75L155.4,98.5z M99,75L75.5,50.9v47.6L99,75z"/>
</g>
</svg>
