<?xml version="1.0" encoding="utf-8"?>
<!-- Generator: Adobe Illustrator 19.1.0, SVG Export Plug-In . SVG Version: 6.00 Build 0)  -->
<svg version="1.1" id="Camada_1" xmlns="http://www.w3.org/2000/svg" xmlns:xlink="http://www.w3.org/1999/xlink" x="0px" y="0px"
	 viewBox="0 0 235.5 155.7" enable-background="new 0 0 235.5 155.7" xml:space="preserve">
<g>
	<defs>
		<rect id="SVGID_185_" width="235.5" height="155.7"/>
	</defs>
	<use xlink:href="#SVGID_185_"  overflow="visible" fill="#C88F00"/>
	<clipPath id="SVGID_2_">
		<use xlink:href="#SVGID_185_"  overflow="visible"/>
	</clipPath>
</g>
<g>
	<g>
		<path fill="#F0EADB" d="M113,127.5c-1.3,5,1.5,10.1,6.4,11.4l66.8,17.9c4.9,1.3,9.9-1.7,11.2-6.7l30.6-114.4
			c1.3-5-1.5-10.1-6.4-11.4L154.9,6.4c-4.9-1.3-9.9,1.7-11.2,6.7L113,127.5z"/>
		
			<rect x="132" y="22.4" transform="matrix(-0.966 -0.2586 0.2586 -0.966 315.8475 199.1501)" opacity="0.75" fill="#B2B2B2" width="78.1" height="112.8"/>
		
			<ellipse transform="matrix(-0.966 -0.2586 0.2586 -0.966 363.7053 87.5533)" fill="#1F829E" cx="187.6" cy="19.9" rx="1.9" ry="1.9"/>
		
			<rect x="150.2" y="137.7" transform="matrix(-0.966 -0.2586 0.2586 -0.966 266.7663 313.306)" fill="#1F829E" width="7.6" height="2.7"/>
	</g>
	<g>
		<polygon fill="#20191A" points="226.7,64.2 216.6,79 220.1,66.1 		"/>
		<circle fill="#20191A" cx="222.1" cy="61.2" r="5.5"/>
		<polygon fill="#20191A" points="116.9,113.6 109.9,118.6 115.7,119.3 		"/>
		<circle fill="#20191A" cx="112.7" cy="122.3" r="4.7"/>
		<g>
			<defs>
				<polygon id="SVGID_187_" points="192.4,142.9 118.8,123.2 140.1,43.4 186.4,45.8 219.4,48.9 194.1,143.4 				"/>
			</defs>
			<clipPath id="SVGID_3_">
				<use xlink:href="#SVGID_187_"  overflow="visible"/>
			</clipPath>
			<path clip-path="url(#SVGID_3_)" fill="#20191A" d="M202.8,79.8L176.2,79c-12.2,0.9-14.9-0.5-15.4-1.4c5.4-1.3,9.9-5.4,11.5-11.2
				c2.2-8.3-2.6-16.8-10.7-19c-8.1-2.2-16.5,2.8-18.8,11.1c-2.2,8.3,2.6,16.8,10.7,19c0.2,0.1,0.4,0.1,0.6,0.1
				c-0.2,1-1.7,1.4-1.7,1.4l-19.3,0.5c-2,0.3-2.9,1.6-2.9,1.6l-1,3.7l-0.4,17.3c0.1,3.6-1.8,4.5-1.8,4.5l-4.6,2.9l-3.5,13.6
				l17.3-9.7c3.6-2.4,3.6-5.6,3.6-5.6l0.1-15.5c0.8-2.1,1.3,0.2,1.3,0.2l0.1,47.7l11.5,3.1l-0.1-5.4c0,0,0.1-1.1,5.4-1.2
				c5.3-0.1,5.9,1.3,5.9,1.3l-0.2,8.3l11.6,3.1l-0.6-54.1c0.1-4.2,3.4-4.2,3.4-4.2l25.4,1.5c4.1,0.3,5.3-3.6,5.3-3.6l5.9-22.5
				L202.8,79.8z"/>
		</g>
		<g>
			<path fill="#75B982" stroke="#75B982" stroke-width="2" stroke-miterlimit="10" d="M176.2,79c-6.9,0.5-10.7,0.2-12.9-0.2
				c-3.9,1.7-8.9,0.6-10.7,0.2c-0.1,0-0.2,0.1-0.2,0.1l-19.3,0.5c-2,0.3-2.9,1.6-2.9,1.6l-1,3.7l-0.3,11.8l10.9-0.5l0-3.6
				c0.8-2.1,1.3,0.2,1.3,0.2l0.1,31l33.8,1.3l-0.3-29.6c0.1-4.2,3.4-4.2,3.4-4.2l7.5,0.4l0.7-12.4L176.2,79z"/>
		</g>
	</g>
</g>
<g>
	<path d="M27.1,58.8c-0.7,1-1.5,1.7-2.4,2.2c-1,0.4-2.1,0.6-3.2,0.6c-2.8,0-5-0.9-6.7-2.8c-1.7-1.8-2.5-4.3-2.5-7.5
		c0-3.1,0.8-5.6,2.4-7.4c1.7-1.9,4-2.8,6.8-2.8c2.4,0,4.4,0.6,6,1.8c1.6,1.3,2.5,2.9,2.8,4.9h-2.7c-0.8,0-1.4-0.4-1.8-1.1
		c-0.3-0.5-0.6-0.9-1.1-1.3c-0.8-0.5-1.8-0.8-3-0.8c-1.6,0-2.9,0.6-3.9,1.8c-0.9,1.3-1.4,2.9-1.4,5c0,2.1,0.5,3.8,1.5,5
		c0.9,1.2,2.3,1.8,4,1.8c1.3,0,2.3-0.4,3.2-1.1c0.8-0.8,1.4-1.8,1.6-3.1h-2.4c-0.6,0-1.1-0.2-1.4-0.6c-0.4-0.4-0.6-0.9-0.6-1.4v-1.3
		h8.1v10.6h-1.1c-1.1,0-1.7-0.5-2-1.6L27.1,58.8z"/>
	<path d="M40.9,60.5c-0.8,0.4-1.6,0.7-2.5,0.8c-0.9,0.1-1.7,0.1-2.4,0.1c-1.4,0-2.6-0.4-3.6-1.1c-1-0.7-1.5-2-1.5-3.7
		c0-1.6,0.5-2.7,1.4-3.4c0.9-0.7,2.1-1.1,3.6-1.4c0.2,0,0.4,0,0.7-0.1c0.3-0.1,0.6-0.1,0.9-0.1c1.7-0.2,2.5-0.7,2.5-1.5
		c0-0.6-0.3-0.9-0.9-1.1s-1.1-0.3-1.6-0.3c-0.5,0-1,0.1-1.4,0.2s-0.7,0.4-0.9,0.9h-3.8c0.2-1.2,0.7-2.1,1.6-2.9
		c1-0.9,2.5-1.3,4.4-1.3c2.1,0,3.7,0.4,4.8,1.1c1.1,0.8,1.6,1.8,1.6,3.2v5.2c0,1.5-0.3,2.7-0.8,3.6C42.3,59.5,41.6,60.2,40.9,60.5z
		 M39.9,53.5c-0.5,0.3-1.3,0.5-2.2,0.7l-1.3,0.3c-0.7,0.2-1.2,0.4-1.5,0.7c-0.3,0.4-0.4,0.8-0.4,1.3c0,0.6,0.2,1,0.5,1.4
		c0.3,0.3,0.8,0.5,1.5,0.5c1.1,0,1.9-0.3,2.5-0.9c0.6-0.6,0.9-1.4,0.9-2.5V53.5z"/>
	<path d="M44.4,41.6h2c0.5,0,1,0.2,1.4,0.5c0.4,0.4,0.6,0.8,0.6,1.3v17.7h-4V41.6z"/>
	<path d="M59.6,56.5h2.8c-0.4,1.6-1.2,2.8-2.4,3.6c-1.2,0.9-2.7,1.3-4.4,1.3c-2.2,0-3.8-0.7-5.1-2.1c-1.2-1.4-1.8-3.3-1.8-5.9
		c0-2.4,0.6-4.3,1.8-5.7c1.2-1.4,2.9-2.1,5.1-2.1c2.3,0,4,0.7,5.3,2c1.2,1.4,1.8,3.4,1.8,5.9c0,0.2,0,0.3,0,0.4c0,0.1,0,0.2,0,0.2
		c0,0.2,0,0.3-0.1,0.4h-9.8c0,1.2,0.3,2,0.9,2.6c0.5,0.6,1.2,0.9,2.2,0.9c0.6,0,1.2-0.1,1.6-0.4c0.1,0,0.2-0.1,0.3-0.2
		c0.1-0.1,0.2-0.2,0.3-0.3c0-0.1,0.2-0.3,0.4-0.5C58.7,56.6,59.1,56.5,59.6,56.5z M52.7,52.1h5.8c-0.1-1-0.3-1.8-0.8-2.3
		c-0.5-0.5-1.2-0.8-2.1-0.8c-0.8,0-1.5,0.3-2,0.8C53.1,50.3,52.8,51.1,52.7,52.1z"/>
	<path d="M63.2,61.2v-7.3c0-1.5,0.2-2.7,0.7-3.7s1-1.8,1.8-2.4c0.7-0.6,1.6-1,2.5-1.3c1-0.3,2-0.4,3-0.4c0.1,0,0.2,0,0.3,0
		s0.2,0,0.3,0v4h-1.3c-1.1,0-1.9,0.3-2.4,0.8c-0.5,0.5-0.8,1.4-0.8,2.5v7.8H63.2z"/>
	<path d="M72.5,41.6h2c0.5,0,1,0.2,1.4,0.6c0.4,0.4,0.6,0.8,0.6,1.4v1.2h-4V41.6z M72.5,46h2c0.5,0,1,0.2,1.4,0.6
		c0.4,0.4,0.6,0.8,0.6,1.4v13.2h-4V46z"/>
	<path d="M86.3,60.5c-0.8,0.4-1.6,0.7-2.5,0.8c-0.9,0.1-1.7,0.1-2.4,0.1c-1.4,0-2.6-0.4-3.6-1.1c-1-0.7-1.5-2-1.5-3.7
		c0-1.6,0.5-2.7,1.4-3.4c0.9-0.7,2.1-1.1,3.6-1.4c0.2,0,0.4,0,0.7-0.1c0.3-0.1,0.6-0.1,0.9-0.1c1.7-0.2,2.5-0.7,2.5-1.5
		c0-0.6-0.3-0.9-0.9-1.1s-1.1-0.3-1.6-0.3c-0.5,0-1,0.1-1.4,0.2s-0.7,0.4-0.9,0.9h-3.8c0.2-1.2,0.7-2.1,1.6-2.9
		c1-0.9,2.5-1.3,4.4-1.3c2.1,0,3.7,0.4,4.8,1.1c1.1,0.8,1.6,1.8,1.6,3.2v5.2c0,1.5-0.3,2.7-0.8,3.6C87.7,59.5,87.1,60.2,86.3,60.5z
		 M85.4,53.5c-0.5,0.3-1.3,0.5-2.2,0.7l-1.3,0.3c-0.7,0.2-1.2,0.4-1.5,0.7c-0.3,0.4-0.4,0.8-0.4,1.3c0,0.6,0.2,1,0.5,1.4
		c0.3,0.3,0.8,0.5,1.5,0.5c1.1,0,1.9-0.3,2.5-0.9c0.6-0.6,0.9-1.4,0.9-2.5V53.5z"/>
	<path d="M106.2,41.5h1.9c0.5,0,1,0.2,1.4,0.6c0.4,0.4,0.6,0.8,0.6,1.3v11.1c0,2.7-0.8,4.5-2.3,5.5c-1.6,0.9-3.2,1.4-5.1,1.4
		c-1,0-2-0.2-2.9-0.5c-0.9-0.3-1.7-0.8-2.3-1.6c-1.1-1.4-1.6-3.3-1.6-5.7c0-2.4,0.5-4.3,1.6-5.7c1.1-1.5,2.6-2.2,4.4-2.2
		c0.9,0,1.8,0.2,2.5,0.6c0.8,0.5,1.4,1,1.8,1.8V41.5z M99.7,53.5c0,1.5,0.3,2.7,0.9,3.5s1.4,1.2,2.4,1.2c1,0,1.8-0.4,2.4-1.2
		c0.5-0.8,0.8-2,0.8-3.5c0-1.4-0.3-2.4-0.9-3.2c-0.6-0.8-1.4-1.1-2.4-1.1c-1,0-1.8,0.4-2.3,1.2C100,51.1,99.7,52.1,99.7,53.5z"/>
	<path d="M121.3,56.5h2.8c-0.4,1.6-1.2,2.8-2.4,3.6c-1.2,0.9-2.7,1.3-4.4,1.3c-2.2,0-3.8-0.7-5.1-2.1c-1.2-1.4-1.8-3.3-1.8-5.9
		c0-2.4,0.6-4.3,1.8-5.7c1.2-1.4,2.9-2.1,5.1-2.1c2.3,0,4,0.7,5.3,2c1.2,1.4,1.8,3.4,1.8,5.9c0,0.2,0,0.3,0,0.4c0,0.1,0,0.2,0,0.2
		c0,0.2,0,0.3-0.1,0.4h-9.8c0,1.2,0.3,2,0.9,2.6c0.5,0.6,1.2,0.9,2.2,0.9c0.6,0,1.2-0.1,1.6-0.4c0.1,0,0.2-0.1,0.3-0.2
		c0.1-0.1,0.2-0.2,0.3-0.3c0-0.1,0.2-0.3,0.4-0.5C120.5,56.6,120.8,56.5,121.3,56.5z M114.5,52.1h5.8c-0.1-1-0.3-1.8-0.8-2.3
		c-0.5-0.5-1.2-0.8-2.1-0.8c-0.8,0-1.5,0.3-2,0.8C114.8,50.3,114.5,51.1,114.5,52.1z"/>
	<path d="M12.6,96.1V78.6c0-0.6,0.2-1.1,0.6-1.4c0.4-0.4,0.9-0.6,1.4-0.6h2v19.6H12.6z"/>
	<path d="M30,96.1h-3.9v-8.9v-0.8c0-0.9-0.3-1.6-0.8-2c-0.5-0.4-1.2-0.6-1.8-0.6c-0.7,0-1.3,0.2-1.8,0.6s-0.8,1.1-0.8,2v9.7h-4v-8.9
		c0-2.6,0.7-4.3,2-5.2c1.3-0.9,2.8-1.3,4.5-1.4c0.9,0,1.7,0.1,2.6,0.3c0.8,0.2,1.6,0.6,2.3,1.1c0.6-0.5,1.2-0.8,2-1.1
		c0.8-0.2,1.6-0.3,2.4-0.4c1.7,0,3.2,0.4,4.6,1.3c1.4,0.9,2.1,2.6,2.1,5.3v8.9h-2c-0.6,0-1-0.2-1.4-0.5c-0.4-0.4-0.5-0.8-0.5-1.4
		v-7.7c0-0.9-0.3-1.6-0.8-2c-0.5-0.4-1.2-0.6-1.8-0.6c-0.7,0-1.3,0.2-1.8,0.6c-0.5,0.4-0.8,1.1-0.8,2v0.8V96.1z"/>
	<path d="M50,95.5c-0.8,0.4-1.6,0.7-2.5,0.8c-0.9,0.1-1.7,0.1-2.4,0.1c-1.4,0-2.6-0.4-3.6-1.1c-1-0.7-1.5-2-1.5-3.7
		c0-1.6,0.5-2.7,1.4-3.4c0.9-0.7,2.1-1.1,3.6-1.4c0.2,0,0.4,0,0.7-0.1c0.3-0.1,0.6-0.1,0.9-0.1c1.7-0.2,2.5-0.7,2.5-1.5
		c0-0.6-0.3-0.9-0.9-1.1s-1.1-0.3-1.6-0.3c-0.5,0-1,0.1-1.4,0.2s-0.7,0.4-0.9,0.9h-3.8c0.2-1.2,0.7-2.1,1.6-2.9
		c1-0.9,2.5-1.3,4.4-1.3c2.1,0,3.7,0.4,4.8,1.1c1.1,0.8,1.6,1.8,1.6,3.2v5.2c0,1.5-0.3,2.7-0.8,3.6C51.4,94.5,50.8,95.1,50,95.5z
		 M49.1,88.5c-0.5,0.3-1.3,0.5-2.2,0.7l-1.3,0.3c-0.7,0.2-1.2,0.4-1.5,0.7c-0.3,0.4-0.4,0.8-0.4,1.3c0,0.6,0.2,1,0.5,1.4
		c0.3,0.3,0.8,0.5,1.5,0.5c1.1,0,1.9-0.3,2.5-0.9c0.6-0.6,0.9-1.4,0.9-2.5V88.5z"/>
	<path d="M63.4,95.2v-1c-0.7,1.1-1.6,1.7-2.8,2s-2.3,0.2-3.4-0.3c-1.1-0.5-2.1-1.3-2.9-2.5c-0.8-1.2-1.2-2.9-1.2-4.9
		c0-2.3,0.5-4.3,1.6-5.7s2.8-2.2,5.2-2.2c1.8,0,3.5,0.5,5.1,1.5c1.6,1,2.3,2.8,2.3,5.5v8c0,2.7-0.8,4.5-2.3,5.4
		c-1.6,1-3.2,1.4-5.1,1.4c-3.5,0-5.6-1.6-6.5-4.9h4.1c0.3,0.5,0.8,0.9,1.4,1.2s1.3,0.4,1.9,0.2c0.6-0.1,1.2-0.5,1.7-1.1
		C63,97.3,63.3,96.4,63.4,95.2z M56.9,88.6c0,2.6,0.8,4.1,2.3,4.3s2.6-0.1,3.4-1.1c0.3-0.4,0.6-1.1,0.7-2s0.2-1.8,0-2.6
		c-0.1-0.9-0.4-1.6-0.9-2.3c-0.5-0.7-1.2-1-2.2-1c-1.3,0-2.2,0.5-2.6,1.4C57.1,86.3,56.9,87.4,56.9,88.6z"/>
	<path d="M78.4,91.4h2.8c-0.4,1.6-1.2,2.8-2.4,3.6c-1.2,0.9-2.7,1.3-4.4,1.3c-2.2,0-3.8-0.7-5.1-2.1c-1.2-1.4-1.8-3.3-1.8-5.9
		c0-2.4,0.6-4.3,1.8-5.7c1.2-1.4,2.9-2.1,5.1-2.1c2.3,0,4,0.7,5.3,2c1.2,1.4,1.8,3.4,1.8,5.9c0,0.2,0,0.3,0,0.4c0,0.1,0,0.2,0,0.2
		c0,0.2,0,0.3-0.1,0.4h-9.8c0,1.2,0.3,2,0.9,2.6c0.5,0.6,1.2,0.9,2.2,0.9c0.6,0,1.2-0.1,1.6-0.4c0.1,0,0.2-0.1,0.3-0.2
		c0.1-0.1,0.2-0.2,0.3-0.3c0-0.1,0.2-0.3,0.4-0.5C77.6,91.5,78,91.4,78.4,91.4z M71.6,87h5.8c-0.1-1-0.3-1.8-0.8-2.3
		c-0.5-0.5-1.2-0.8-2.1-0.8c-0.8,0-1.5,0.3-2,0.8C71.9,85.2,71.6,86,71.6,87z"/>
	<path d="M95.3,96.1h-3.9v-8.9v-0.8c0-0.9-0.3-1.6-0.8-2c-0.5-0.4-1.2-0.6-1.8-0.6c-0.7,0-1.3,0.2-1.8,0.6s-0.8,1.1-0.8,2v9.7h-4
		v-8.9c0-2.6,0.7-4.3,2-5.2c1.3-0.9,2.8-1.3,4.5-1.4c0.9,0,1.7,0.1,2.6,0.3c0.8,0.2,1.6,0.6,2.3,1.1c0.6-0.5,1.2-0.8,2-1.1
		c0.8-0.2,1.6-0.3,2.4-0.4c1.7,0,3.2,0.4,4.6,1.3c1.4,0.9,2.1,2.6,2.1,5.3v8.9h-2c-0.6,0-1-0.2-1.4-0.5c-0.4-0.4-0.5-0.8-0.5-1.4
		v-7.7c0-0.9-0.3-1.6-0.8-2c-0.5-0.4-1.2-0.6-1.8-0.6c-0.7,0-1.3,0.2-1.8,0.6c-0.5,0.4-0.8,1.1-0.8,2v0.8V96.1z"/>
</g>
</svg>
