<?xml version="1.0" encoding="utf-8"?>
<!-- Generator: Adobe Illustrator 19.1.0, SVG Export Plug-In . SVG Version: 6.00 Build 0)  -->
<svg version="1.1" id="Camada_1" xmlns="http://www.w3.org/2000/svg" xmlns:xlink="http://www.w3.org/1999/xlink" x="0px" y="0px"
	 viewBox="0 0 234.3 157.1" enable-background="new 0 0 234.3 157.1" xml:space="preserve">
<g>
	<g>
		<defs>
			<rect id="SVGID_189_" width="234.3" height="157.1"/>
		</defs>
		<clipPath id="SVGID_2_">
			<use xlink:href="#SVGID_189_"  overflow="visible"/>
		</clipPath>
		<g clip-path="url(#SVGID_2_)">
			<linearGradient id="SVGID_3_" gradientUnits="userSpaceOnUse" x1="116.8656" y1="161.987" x2="121.7814" y2="-0.2349">
				<stop  offset="8.796300e-002" style="stop-color:#A3412E"/>
				<stop  offset="0.162" style="stop-color:#BA481A"/>
				<stop  offset="0.2269" style="stop-color:#DC7461"/>
				<stop  offset="0.4259" style="stop-color:#E28E7F"/>
				<stop  offset="0.6759" style="stop-color:#798CBD"/>
				<stop  offset="0.8148" style="stop-color:#6279AE"/>
				<stop  offset="0.8981" style="stop-color:#495C84"/>
				<stop  offset="1" style="stop-color:#333F5F"/>
			</linearGradient>
			<rect x="-2.9" y="-0.3" fill="url(#SVGID_3_)" width="244.5" height="162.2"/>
			<path fill="#322B28" d="M13,161.9h229.2c0,0-23.2-8.8-36.3-11.3c-7.1-1.3-67.8-16.9-109.6-10.4c-71.6,11.2-99.2,21.7-99.2,21.7"
				/>
			<path opacity="0.3" fill="#F8F3F2" d="M-2.6,122.2c0,0,6.1-2.8,10.1,1.3c4,4.1,7.6,2.6,7.6,2.6s2.2-2,3.3-1.2c0,0,4-3.5,7.6-1.1
				c0,0,2.3-2.6,6,0c0,0,6.3-4.3,14.1,0c0,0,5.8-2,11.7,1.2c0,0,10.4-2.7,20.5,0.3c0,0,12.4-1.1,18,1c0,0,4.9-1.6,9.3-0.2
				c0.2,0.1,0.4,0.1,0.6,0.2c4.6,1.8,5,3.8,7.3,3c2.3-0.9,3.1-2.6,6.8-1.9c0,0,2.2-1.9,8.9,0.5c0,0,5.3-2.9,10.3,0.3
				c0,0,4.1-2,7.8,1.2c0,0,1.3,0.8,2.5,0.8c1.2,0,4.1-1,6.6-1c0,0,3.6,2.1,6.1,2.1c2.5,0,4.1,0.2,7.4,0c3.3-0.2,9.4,0.8,14.1,0.1
				c4.6-0.8,10.8,0.5,18.7,1.5c0,0,10.7-0.6,12.7-0.7c2-0.2,27.3-1.3,26.5,1.1c-0.8,2.4-19.5,3.3-20.7,3.5c-1.2,0.2-4,1.5-3.5,2
				c0.5,0.5-1.8,2.7-3.6,2.7c-1.8,0-4.5-0.9-8.4-0.9c-4,0-4.1,0.9-7.1,0.9c-3,0-10.4,0-11.4,0c-1,0-5.3-0.9-8.1,0
				c-2.8,0.9-4,2.6-8.8,2.6c-4.8,0-26.1,0.7-30.4,1c-4.3,0.3-5.5,1-8.8,2.2s-5.8,2.4-10.4,2.4s-9.6-2.2-12.4-2.4
				c-2.8-0.2-3.3,0.3-6.8,0.3c-3.5,0-4.6-0.2-9.4-0.9c-4.8-0.7-19.2-0.7-23.3-1.2c-4.1-0.5-18.2-0.5-24.2-0.5c-6,0-6.1-1-13.1-1.9
				c-6.9-0.9-8.1-2.2-11.9-1.9c-3.8,0.3-6.3,1-8.6,0.9c-2.3-0.2-3.5-1.2-6.5-1.2c-3,0-7.1,0.5-7.1,0.5v-18.4"/>
			<path opacity="0.1" fill="#F8F3F2" d="M-2.9,104.9c0,0,3.6-1.6,6,0.8c2.4,2.4,4.5,1.5,4.5,1.5s1.3-1.2,2-0.7c0,0,2.4-2.1,4.5-0.6
				c0,0,1.4-1.5,3.5,0c0,0,3.7-2.6,8.4,0c0,0,3.4-1.2,7,0.7c0,0,6.2-1.6,12.2,0.2c0,0,7.4-0.7,10.7,0.6c0,0,2.9-1,5.5-0.1
				c0.1,0,0.2,0.1,0.4,0.1c2.8,1.1,2.9,2.3,4.3,1.8c1.4-0.5,1.9-1.5,4-1.1c0,0,1.3-1.1,5.3,0.3c0,0,3.1-1.7,6.1,0.2
				c0,0,2.5-1.2,4.6,0.7c0,0,0.8,0.5,1.5,0.5c0.7,0,2.5-0.6,3.9-0.6c0,0,2.2,1.2,3.6,1.2c1.5,0,2.5,0.1,4.4,0c2-0.1,5.6,0.5,8.4,0
				c2.8-0.5,6.4,0.3,11.1,0.9c0,0,6.4-0.3,7.6-0.4c1.2-0.1,16.2-0.8,15.7,0.7c-0.5,1.4-11.6,2-12.3,2.1c-0.7,0.1-2.4,0.9-2.1,1.2
				c0.3,0.3-1.1,1.6-2.2,1.6c-1.1,0-2.7-0.5-5-0.5s-2.5,0.5-4.2,0.5c-1.8,0-6.2,0-6.8,0c-0.6,0-3.1-0.5-4.8,0
				c-1.7,0.5-2.4,1.5-5.2,1.5c-2.9,0-15.5,0.4-18.1,0.6c-2.6,0.2-3.2,0.6-5.2,1.3c-2,0.7-3.4,1.4-6.2,1.4c-2.8,0-5.7-1.3-7.4-1.4
				c-1.7-0.1-2,0.2-4,0.2c-2.1,0-2.8-0.1-5.6-0.5c-2.9-0.4-11.4-0.4-13.9-0.7c-2.5-0.3-10.8-0.3-14.4-0.3c-3.5,0-3.6-0.6-7.8-1.1
				c-4.1-0.5-4.8-1.3-7.1-1.1c-2.3,0.2-3.7,0.6-5.1,0.5c-1.4-0.1-2.1-0.7-3.8-0.7c-1.8,0-4.2,0.3-4.2,0.3v-11"/>
			<path opacity="0.1" fill="#F8F3F2" d="M241.6,114.7c0,0-3.1-1.4-5,0.7c-2,2-3.8,1.3-3.8,1.3s-1.1-1-1.7-0.6c0,0-2-1.7-3.8-0.5
				c0,0-1.2-1.3-3,0c0,0-3.1-2.2-7,0c0,0-2.9-1-5.9,0.6c0,0-5.2-1.4-10.2,0.2c0,0-6.2-0.6-9,0.5c0,0-2.4-0.8-4.7-0.1
				c-0.1,0-0.2,0.1-0.3,0.1c-2.3,0.9-2.5,1.9-3.6,1.5c-1.2-0.4-1.6-1.3-3.4-0.9c0,0-1.1-0.9-4.5,0.3c0,0-2.6-1.5-5.1,0.2
				c0,0-2.1-1-3.9,0.6c0,0-0.7,0.4-1.2,0.4c-0.6,0-2.1-0.5-3.3-0.5c0,0-1.8,1-3.1,1c-1.2,0-2.1,0.1-3.7,0c-1.7-0.1-4.7,0.4-7,0
				c-2.3-0.4-5.4,0.3-9.3,0.8c0,0-5.4-0.3-6.3-0.4c-1-0.1-13.6-0.6-13.2,0.5c0.4,1.2,9.8,1.7,10.3,1.7c0.6,0.1,2,0.8,1.7,1
				c-0.2,0.3,0.9,1.4,1.8,1.4c0.9,0,2.2-0.4,4.2-0.4c2,0,2.1,0.4,3.6,0.4c1.5,0,5.2,0,5.7,0c0.5,0,2.6-0.4,4,0
				c1.4,0.4,2,1.3,4.4,1.3c2.4,0,13.1,0.3,15.2,0.5c2.1,0.2,2.7,0.5,4.4,1.1c1.7,0.6,2.9,1.2,5.2,1.2c2.3,0,4.8-1.1,6.2-1.2
				c1.4-0.1,1.7,0.2,3.4,0.2c1.7,0,2.3-0.1,4.7-0.4c2.4-0.3,9.6-0.3,11.6-0.6c2.1-0.3,9.1-0.3,12.1-0.3c3,0,3.1-0.5,6.5-0.9
				c3.5-0.4,4-1.1,5.9-0.9s3.1,0.5,4.3,0.4c1.2-0.1,1.7-0.6,3.2-0.6s3.6,0.3,3.6,0.3v-9.2"/>
			<path fill="#322B28" d="M-2.9,141.9c0,0,51.6-1.8,59.9-1.8c8.3,0,29.4,1.7,35.1,3.9c5.6,2.3,16.1,3.4,25.7,5.1
				c9.6,1.7,12.9,3.4,17.3,1.1c4.4-2.2,15.9-2.8,19.9-3.9c4-1.1,7.4,1.6,10.1,1.1c2.7-0.6,3.6-2.7,9.2-1c5.6,1.7,3.7,2.2,10.2,3.9
				c6.4,1.7,24.6,6.2,24.6,6.2l3.7,4.5H-2.4L-2.9,141.9z"/>
			<g>
				<path fill="#252B2E" d="M179.1,100.2c0,0,0.9,0.2,1.9,0c0.9-0.2,1.2-0.2,2-0.5c0.8-0.3,1.7,0.4,2,0c1.4-1.6,2.9,8.4,2.9,8.4
					s-0.8,0.8-2.1,0.1c-1.3-0.7-2.1,0.7-2.1,0.7s-0.9,0-1.5,0c-0.5,0-1.7-0.1-2.1-0.3c-0.4-0.2-2-0.4-2.5-0.4
					c-0.5,0-2.3,0.8-2.7,0.8c-0.4,0-3.5-1.9-3.5-1.9"/>
				<path fill="#252B2E" d="M159.1,28.6c0,0,0.7-2.4,5.3-3.4c0,0,1.2-0.7,2.2,1.7c1,2.4,14.9,37.9,15.2,40.8
					c0.3,2.9,1.3,2.1,3.3,1.4c2-0.7,32-10.9,32-10.9s2.2-1.2,3.3,0c1.2,1.2,2.2,5,0,5.5c-2.2,0.5-31.9,12.2-31.9,12.2l-3.2,1
					c0,0-1.2,1,0.2,3.1c1.3,2.1,6,15.9,6,15.9s8.8,11.1,8.8,12.2c0,1.1-0.8,2.4-0.2,2.9c0.6,0.5,2.7,2.5,2.7,3.3
					c0,0.8,0.4,3.6,0,4.4c-0.4,0.8-0.7,1.6-1.3,1.6l0.8,3.1c0,0,0.3,1.2-0.6,1.6c-0.9,0.4-5.2,2.1-5.2,2.1s-1.3-0.3-1.9-1.8
					c-0.7-1.6-12.1-29.4-12.1-29.4s-1.2-1.9-2,0.2c-1.2,2.8-1.3,2.6-1.4,3.5c-0.2,0.9-0.3,2.2-0.6,3.6c-0.3,1.5-1.7,2.5-2.2,3.1
					c-0.5,0.6-1.8,1.9-0.5,3c0,0,9.4,11.3,10,12.4c0.6,1.1,1.3,5.1,0.3,6.7c-1,1.6-4.7,5.1-3.6,7.8c0,0,1.6,2.4-0.5,5.4
					c0,0,0.3,7.8-0.2,10.1c-0.5,2.2-0.6,2.9,0.6,4.1c1.2,1.2,1.5,2,1.5,2h-18.9l-4.9-9.5c0,0-2-3-0.8-4.2c1.3-1.2,2.4-3.1,3.8-2.8
					l3.8-5.3c0,0,0.6-3.7,1.3-4.6c0.8-0.9,0.6-0.4-0.3-1.1c-0.8-0.7-6-7-7.2-9.7c-1.2-2.8-3.8-5.9-2.7-10.3c0,0,1.6-1.7,0.8-1.6
					c-0.8,0.1-2.1,0.5-2.9-0.6c-0.9-1.3-1.6-1.9-1.2-3.9c0.4-2,0.8-3.8,1.4-6c1-4.1,1.6-4.4,2.4-6.1c0.7-1.5,1-3.4,2-4.4
					c0.9-0.9,5.3-5-0.4-1.6c-1.1,0.7-46.1,19.3-46.1,19.3l-31.9,13.4l-29.9,12.2c0,0-4.6-5.3-3.5-11.5l64.7-24l52.3-19.1l0.5-2
					l-0.9-0.7l0.3-0.8l-0.8-0.3l0.2-0.9v-2.3l0.8-0.7l0.9-1.1l1.8-0.1l1.3-0.5c0,0,2.7-0.1,3.4,0.3
					C173.3,67.8,159.7,31.8,159.1,28.6z"/>
			</g>
			<path opacity="0.2" fill="#F8F3F2" d="M178.8,117.2c0,0,0.3-0.1,0.7,0.6c0.2,0.3-0.1,1.2-0.1,1.2L178.8,117.2z"/>
		</g>
	</g>
	<g>
		<path d="M19,32.4v7.3h-4.2V21.4c0-0.6,0.2-1.1,0.6-1.5s0.9-0.6,1.5-0.6h7c2.2,0,3.8,0.6,4.9,1.7c1.1,1.1,1.7,2.8,1.7,4.9
			c0,2.1-0.5,3.7-1.6,4.9c-1.1,1.1-2.6,1.7-4.6,1.7H19z M19,28.7h4.1c1.1,0,1.9-0.2,2.4-0.7c0.5-0.4,0.8-1.2,0.8-2.3
			c0-0.9-0.2-1.6-0.7-2.2c-0.6-0.5-1.3-0.7-2.2-0.7H19V28.7z"/>
		<path d="M42.2,34.8h3c-0.4,1.7-1.3,2.9-2.5,3.8C41.4,39.5,39.9,40,38,40c-2.3,0-4-0.7-5.3-2.2c-1.3-1.4-1.9-3.5-1.9-6.1
			c0-2.5,0.6-4.5,1.8-5.9c1.3-1.5,3-2.2,5.3-2.2c2.4,0,4.2,0.7,5.5,2.1c1.3,1.5,1.9,3.5,1.9,6.1c0,0.2,0,0.3,0,0.4
			c0,0.1,0,0.2,0,0.2c0,0.2,0,0.3-0.1,0.4H35c0,1.2,0.3,2.1,0.9,2.7c0.5,0.6,1.3,1,2.3,1c0.7,0,1.2-0.1,1.7-0.4
			c0.1,0,0.2-0.1,0.3-0.2c0.1-0.1,0.2-0.2,0.3-0.3c0-0.1,0.2-0.3,0.4-0.5C41.3,34.9,41.7,34.8,42.2,34.8z M35,30.2h6.1
			c-0.1-1.1-0.4-1.9-0.8-2.4C39.8,27.3,39,27,38.1,27c-0.9,0-1.6,0.3-2.1,0.8C35.4,28.4,35.1,29.2,35,30.2z"/>
		<path d="M56.5,19.2h2c0.6,0,1,0.2,1.4,0.6c0.4,0.4,0.6,0.9,0.6,1.4v11.6c0,2.8-0.8,4.7-2.4,5.7c-1.6,1-3.4,1.5-5.3,1.5
			c-1,0-2-0.2-3-0.5s-1.8-0.9-2.4-1.6c-1.1-1.5-1.7-3.5-1.7-6c0-2.5,0.6-4.5,1.7-6c1.2-1.5,2.7-2.3,4.6-2.3c1,0,1.9,0.2,2.6,0.6
			c0.8,0.5,1.4,1.1,1.9,1.8V19.2z M49.7,31.7c0,1.6,0.3,2.8,0.9,3.6c0.6,0.8,1.4,1.2,2.6,1.2c1.1,0,1.9-0.4,2.5-1.2
			c0.6-0.8,0.8-2,0.8-3.6c0-1.4-0.3-2.6-0.9-3.4c-0.6-0.8-1.5-1.2-2.6-1.2c-1,0-1.8,0.4-2.4,1.2C50,29.1,49.7,30.2,49.7,31.7z"/>
		<path d="M61.6,19.3h2.1c0.6,0,1,0.2,1.4,0.6c0.4,0.4,0.6,0.9,0.6,1.4v1.2h-4.2V19.3z M61.6,23.9h2.1c0.6,0,1,0.2,1.4,0.6
			c0.4,0.4,0.6,0.9,0.6,1.4v13.8h-4.2V23.9z"/>
		<path d="M76.4,19.2h2c0.6,0,1,0.2,1.4,0.6c0.4,0.4,0.6,0.9,0.6,1.4v11.6c0,2.8-0.8,4.7-2.4,5.7c-1.6,1-3.4,1.5-5.3,1.5
			c-1,0-2-0.2-3-0.5s-1.8-0.9-2.4-1.6c-1.1-1.5-1.7-3.5-1.7-6c0-2.5,0.6-4.5,1.7-6c1.2-1.5,2.7-2.3,4.6-2.3c1,0,1.9,0.2,2.6,0.6
			c0.8,0.5,1.4,1.1,1.9,1.8V19.2z M69.6,31.7c0,1.6,0.3,2.8,0.9,3.6c0.6,0.8,1.4,1.2,2.6,1.2c1.1,0,1.9-0.4,2.5-1.2
			c0.6-0.8,0.8-2,0.8-3.6c0-1.4-0.3-2.6-0.9-3.4c-0.6-0.8-1.5-1.2-2.6-1.2c-1,0-1.8,0.4-2.4,1.2C69.9,29.1,69.6,30.2,69.6,31.7z"/>
		<path d="M83.1,38.3c-0.8-0.7-1.4-1.7-1.8-2.9c-0.4-1.2-0.5-2.5-0.5-3.8c0-1.1,0.1-2.1,0.4-3.2c0.3-1.1,0.8-2,1.4-2.7
			c1-1.2,2.4-1.9,4-2.1c1.6-0.2,3.1-0.1,4.4,0.4c1.5,0.6,2.6,1.6,3.3,3.1c0.7,1.3,1,2.8,1,4.6c0,1.3-0.1,2.4-0.4,3.3
			c-0.3,0.9-0.6,1.7-1.1,2.3c-1,1.3-2.2,2.1-3.6,2.4c-1.3,0.4-2.6,0.4-4,0.1S83.9,39,83.1,38.3z M86,27.8c-0.8,0.9-1.2,2.3-1.1,4.1
			c0.1,1.8,0.4,3.1,1,3.8c0.2,0.3,0.7,0.6,1.2,0.8c0.6,0.2,1.2,0.2,1.8,0.1c0.6-0.2,1.2-0.6,1.6-1.3c0.5-0.7,0.7-1.9,0.8-3.4
			c0-1.4-0.2-2.5-0.7-3.2c-0.5-0.7-1-1.2-1.6-1.4c-0.6-0.2-1.2-0.2-1.8,0C86.7,27.3,86.2,27.5,86,27.8z"/>
		<path d="M113.3,19.2h2c0.6,0,1,0.2,1.4,0.6c0.4,0.4,0.6,0.9,0.6,1.4v11.6c0,2.8-0.8,4.7-2.4,5.7c-1.6,1-3.4,1.5-5.3,1.5
			c-1,0-2-0.2-3-0.5s-1.8-0.9-2.4-1.6c-1.1-1.5-1.7-3.5-1.7-6c0-2.5,0.6-4.5,1.7-6c1.2-1.5,2.7-2.3,4.6-2.3c1,0,1.9,0.2,2.6,0.6
			c0.8,0.5,1.4,1.1,1.9,1.8V19.2z M106.5,31.7c0,1.6,0.3,2.8,0.9,3.6c0.6,0.8,1.4,1.2,2.6,1.2c1.1,0,1.9-0.4,2.5-1.2
			c0.6-0.8,0.8-2,0.8-3.6c0-1.4-0.3-2.6-0.9-3.4c-0.6-0.8-1.5-1.2-2.6-1.2c-1,0-1.8,0.4-2.4,1.2C106.8,29.1,106.5,30.2,106.5,31.7z"
			/>
		<path d="M129,34.8h3c-0.4,1.7-1.3,2.9-2.5,3.8c-1.2,0.9-2.8,1.4-4.6,1.4c-2.3,0-4-0.7-5.3-2.2c-1.3-1.4-1.9-3.5-1.9-6.1
			c0-2.5,0.6-4.5,1.8-5.9c1.3-1.5,3-2.2,5.3-2.2c2.4,0,4.2,0.7,5.5,2.1c1.3,1.5,1.9,3.5,1.9,6.1c0,0.2,0,0.3,0,0.4
			c0,0.1,0,0.2,0,0.2c0,0.2,0,0.3-0.1,0.4h-10.3c0,1.2,0.3,2.1,0.9,2.7c0.5,0.6,1.3,1,2.3,1c0.7,0,1.2-0.1,1.7-0.4
			c0.1,0,0.2-0.1,0.3-0.2c0.1-0.1,0.2-0.2,0.3-0.3c0-0.1,0.2-0.3,0.4-0.5C128.2,34.9,128.6,34.8,129,34.8z M121.9,30.2h6.1
			c-0.1-1.1-0.4-1.9-0.8-2.4c-0.5-0.6-1.2-0.8-2.2-0.8c-0.9,0-1.6,0.3-2.1,0.8C122.2,28.4,122,29.2,121.9,30.2z"/>
		<path d="M14.4,66c0-3.3,0.9-6,2.6-7.9c1.9-1.9,4.3-2.9,7.3-2.9c3,0,5.4,1,7.3,2.9c1.8,2,2.7,4.6,2.7,7.9s-0.9,5.9-2.7,7.8
			c-1.8,1.9-4.3,2.9-7.3,2.9c-3.1,0-5.5-1-7.3-2.9C15.3,71.9,14.4,69.3,14.4,66z M18.6,66c0,2.3,0.5,4,1.5,5.2
			c1,1.2,2.4,1.8,4.2,1.8c1.8,0,3.2-0.6,4.2-1.8c1-1.3,1.5-3,1.5-5.2c0-2.2-0.5-4-1.5-5.3c-1-1.2-2.4-1.8-4.2-1.8
			c-1.8,0-3.2,0.6-4.2,1.8C19.1,61.9,18.6,63.7,18.6,66z"/>
		<path d="M35.3,76.2v-7.7c0-1.5,0.2-2.8,0.7-3.9c0.5-1,1.1-1.9,1.9-2.5c0.8-0.6,1.6-1,2.6-1.3c1-0.3,2-0.4,3.1-0.4
			c0.1,0,0.2,0,0.3,0c0.1,0,0.2,0,0.3,0v4.2h-1.4c-1.1,0-2,0.3-2.6,0.8c-0.6,0.6-0.8,1.4-0.8,2.6v8.1H35.3z"/>
		<path d="M54.7,75.5c-0.8,0.4-1.7,0.7-2.6,0.8c-0.9,0.1-1.8,0.1-2.5,0.1c-1.4,0-2.7-0.4-3.7-1.2s-1.6-2-1.6-3.8
			c0-1.7,0.5-2.9,1.5-3.6c1-0.7,2.2-1.2,3.7-1.4c0.2,0,0.4,0,0.7-0.1c0.3-0.1,0.6-0.1,1-0.1c1.7-0.2,2.6-0.8,2.6-1.5
			c0-0.6-0.3-1-0.9-1.2c-0.6-0.2-1.2-0.3-1.7-0.3c-0.6,0-1,0.1-1.5,0.2c-0.4,0.2-0.8,0.5-1,0.9h-4c0.2-1.2,0.7-2.2,1.7-3
			c1.1-0.9,2.6-1.4,4.6-1.4c2.2,0,3.9,0.4,5,1.1c1.1,0.8,1.7,1.9,1.7,3.3v5.4c0,1.6-0.3,2.8-0.9,3.7C56.2,74.5,55.5,75.1,54.7,75.5z
			 M53.8,68.2c-0.6,0.3-1.3,0.5-2.3,0.8l-1.4,0.3c-0.7,0.2-1.2,0.5-1.5,0.8c-0.3,0.4-0.4,0.9-0.4,1.3c0,0.6,0.2,1.1,0.5,1.4
			c0.4,0.3,0.9,0.5,1.5,0.5c1.1,0,2-0.3,2.6-1c0.6-0.6,1-1.5,1-2.6V68.2z"/>
		<path d="M69.2,71.3h3c-0.4,1.7-1.3,2.9-2.5,3.8c-1.2,0.9-2.8,1.4-4.6,1.4c-2.3,0-4-0.7-5.3-2.2c-1.3-1.4-1.9-3.5-1.9-6.1
			c0-2.5,0.6-4.5,1.8-5.9c1.3-1.5,3-2.2,5.3-2.2c2.4,0,4.2,0.7,5.5,2.1c0.7,0.9,1.2,1.9,1.5,3h-4.2c-0.2-0.4-0.4-0.7-0.6-0.9
			c-0.5-0.6-1.2-0.8-2.2-0.8c-0.9,0-1.6,0.3-2.1,0.8c-0.7,0.8-1.1,2.1-1.1,3.9c0,1.8,0.4,3.1,1.1,3.9c0.5,0.6,1.3,1,2.3,1
			c0.7,0,1.2-0.1,1.7-0.4c0.1,0,0.2-0.1,0.3-0.2c0.1-0.1,0.2-0.2,0.3-0.3c0.1-0.1,0.2-0.3,0.5-0.5S68.7,71.3,69.2,71.3z M61.7,79.5
			V78c0-0.7,0.3-1.2,1-1.4c0.5-0.2,1-0.2,1.6,0c0.6,0.2,1.2,0.4,1.8,0.6c0.6,0.2,1.1,0.3,1.7,0.4c0.5,0,1-0.2,1.5-0.7
			c0,0.7,0,1.3-0.1,1.8c-0.1,0.5-0.4,0.8-1,0.9c-0.6,0.1-1.1,0.1-1.7-0.2c-0.6-0.2-1.2-0.5-1.8-0.7c-0.6-0.2-1.1-0.3-1.6-0.3
			C62.4,78.5,62,78.9,61.7,79.5z"/>
		<path d="M82.9,75.5c-0.8,0.4-1.7,0.7-2.6,0.8c-0.9,0.1-1.8,0.1-2.5,0.1c-1.4,0-2.7-0.4-3.7-1.2s-1.6-2-1.6-3.8
			c0-1.7,0.5-2.9,1.5-3.6c1-0.7,2.2-1.2,3.7-1.4c0.2,0,0.4,0,0.7-0.1c0.3-0.1,0.6-0.1,1-0.1c1.7-0.2,2.6-0.8,2.6-1.5
			c0-0.6-0.3-1-0.9-1.2c-0.6-0.2-1.2-0.3-1.7-0.3c-0.6,0-1,0.1-1.5,0.2c-0.4,0.2-0.8,0.5-1,0.9h-4c0.2-1.2,0.7-2.2,1.7-3
			c1.1-0.9,2.6-1.4,4.6-1.4c2.2,0,3.9,0.4,5,1.1c1.1,0.8,1.7,1.9,1.7,3.3v5.4c0,1.6-0.3,2.8-0.9,3.7C84.4,74.5,83.7,75.1,82.9,75.5z
			 M75.4,59v-1.5c0-0.7,0.3-1.1,1-1.4c0.5-0.2,1-0.1,1.6,0.1c0.6,0.2,1.2,0.4,1.8,0.6s1.1,0.3,1.7,0.4c0.5,0,1-0.2,1.4-0.7
			c0,0.8,0,1.4-0.1,1.8c-0.1,0.5-0.4,0.7-1,0.9c-0.6,0.1-1.1,0.1-1.7-0.2c-0.6-0.2-1.2-0.4-1.8-0.6C77.7,58,77.1,58,76.6,58
			C76.1,58,75.7,58.3,75.4,59z M82,68.2c-0.6,0.3-1.3,0.5-2.3,0.8l-1.4,0.3c-0.7,0.2-1.2,0.5-1.5,0.8c-0.3,0.4-0.4,0.9-0.4,1.3
			c0,0.6,0.2,1.1,0.5,1.4c0.4,0.3,0.9,0.5,1.5,0.5c1.1,0,2-0.3,2.6-1c0.6-0.6,1-1.5,1-2.6V68.2z"/>
		<path d="M88.4,74.8c-0.8-0.7-1.4-1.7-1.8-2.9c-0.4-1.2-0.5-2.5-0.5-3.8c0-1.1,0.1-2.1,0.4-3.2c0.3-1.1,0.8-2,1.4-2.7
			c1-1.2,2.4-1.9,4-2.1c1.6-0.2,3.1-0.1,4.4,0.4c1.5,0.6,2.6,1.6,3.3,3.1c0.7,1.3,1,2.8,1,4.6c0,1.3-0.1,2.4-0.4,3.3
			c-0.3,0.9-0.6,1.7-1.1,2.3c-1,1.3-2.2,2.1-3.6,2.4c-1.3,0.4-2.6,0.4-4,0.1S89.2,75.5,88.4,74.8z M91.3,64.3
			c-0.8,0.9-1.2,2.3-1.1,4.1c0.1,1.8,0.4,3.1,1,3.8c0.2,0.3,0.7,0.6,1.2,0.8c0.6,0.2,1.2,0.2,1.8,0.1c0.6-0.2,1.2-0.6,1.6-1.3
			c0.5-0.7,0.7-1.9,0.8-3.4c0-1.4-0.2-2.5-0.7-3.2c-0.5-0.7-1-1.2-1.6-1.4c-0.6-0.2-1.2-0.2-1.8,0C92,63.8,91.5,64,91.3,64.3z"/>
	</g>
</g>
</svg>
