<?xml version="1.0" encoding="utf-8"?>
<!-- Generator: Adobe Illustrator 19.1.0, SVG Export Plug-In . SVG Version: 6.00 Build 0)  -->
<svg version="1.1" id="Camada_1" xmlns="http://www.w3.org/2000/svg" xmlns:xlink="http://www.w3.org/1999/xlink" x="0px" y="0px"
	 viewBox="0 0 233.7 157.1" enable-background="new 0 0 233.7 157.1" xml:space="preserve">
<rect fill="#C88F00" width="233.7" height="157.1"/>
<g>
	<defs>
		<filter id="Adobe_OpacityMaskFilter" filterUnits="userSpaceOnUse" x="42" y="29.1" width="154" height="97.6">
			<feFlood  style="flood-color:white;flood-opacity:1" result="back"/>
			<feBlend  in="SourceGraphic" in2="back" mode="normal"/>
		</filter>
	</defs>
	<mask maskUnits="userSpaceOnUse" x="42" y="29.1" width="154" height="97.6" id="SVGID_2_">
		<g filter="url(#Adobe_OpacityMaskFilter)">
			<defs>
				<filter id="Adobe_OpacityMaskFilter_1_" filterUnits="userSpaceOnUse" x="42" y="29.1" width="154" height="97.6">
					<feFlood  style="flood-color:white;flood-opacity:1" result="back"/>
					<feBlend  in="SourceGraphic" in2="back" mode="normal"/>
				</filter>
			</defs>
			<mask maskUnits="userSpaceOnUse" x="42" y="29.1" width="154" height="97.6" id="SVGID_2_">
			</mask>
			
				<linearGradient id="SVGID_3_" gradientUnits="userSpaceOnUse" x1="150.6186" y1="26.5139" x2="133.2796" y2="126.1636" gradientTransform="matrix(1 0 0.174 1 -36.2766 0)">
				<stop  offset="0" style="stop-color:#FFFFFF"/>
				<stop  offset="8.490400e-002" style="stop-color:#F6F6F6"/>
				<stop  offset="0.2228" style="stop-color:#DEDEDE"/>
				<stop  offset="0.3965" style="stop-color:#B7B7B7"/>
				<stop  offset="0.5991" style="stop-color:#808080"/>
				<stop  offset="0.8233" style="stop-color:#3B3B3B"/>
				<stop  offset="1" style="stop-color:#000000"/>
			</linearGradient>
			<path mask="url(#SVGID_2_)" fill-rule="evenodd" clip-rule="evenodd" fill="url(#SVGID_3_)" d="M172.9,35.8h-16.6
				c-3.4,0-6.4,3.1-8.5,5.4h-1l-16.4-8.5c-2.2-1.1-4.4-1.7-6.6-1.7h-13.9l-8.4-1.6c-0.8-0.2-1.7-0.2-2.5-0.2c-2.6,0-5.1,0.8-7.1,2.4
				l-10.7,8.3c0,0-1.4,0-2.8-0.1c-2.4-1.5-5-2.3-7.7-2.3H54.1c-8,0-13.4,7.4-12,16.5L48,92c1.4,9.1,9,16.5,17,16.5h16.6
				c0.2,0,0.3,0,0.5,0c2.6,2.4,5.6,4.4,8.5,5.4c0.1,0.1,0.1,0.1,0.1,0.2c2.9,3,6.3,5,9.7,5.9c0,0,0,0,0,0c4.5,3.8,10.2,5.1,13.7,5.1
				c1.3,0,2.5-0.2,3.7-0.5c2.6,1.1,6.1,2.1,9.7,2.1c2.5,0,4.7-0.5,6.7-1.5c0.3,0,0.6,0,0.9,0c3.6,0,6.9-1.1,9.6-3.2
				c2.2-0.2,4.3-0.8,6.2-1.7c0.3-0.1,0.6-0.3,0.8-0.5c0.6-0.4,1.2-0.7,1.7-1.1c1.1,0,2.2-0.2,3.2-0.5c6.3-1.7,9.3-6.8,10.5-9.7
				c0,0,0.1,0,0.1,0h16.6c8,0,13.4-7.4,12-16.5l-5.8-38C188.5,44.9,180.9,35.8,172.9,35.8z"/>
		</g>
	</mask>
	
		<linearGradient id="SVGID_4_" gradientUnits="userSpaceOnUse" x1="150.6186" y1="26.5139" x2="133.2796" y2="126.1636" gradientTransform="matrix(1 0 0.174 1 -36.2766 0)">
		<stop  offset="0" style="stop-color:#545052"/>
		<stop  offset="0.1119" style="stop-color:#5D595B"/>
		<stop  offset="0.2934" style="stop-color:#747173"/>
		<stop  offset="0.522" style="stop-color:#9B9899"/>
		<stop  offset="0.786" style="stop-color:#CFCECF"/>
		<stop  offset="1" style="stop-color:#FFFFFF"/>
	</linearGradient>
	<path fill-rule="evenodd" clip-rule="evenodd" fill="url(#SVGID_4_)" d="M172.9,35.8h-16.6c-3.4,0-6.4,3.1-8.5,5.4h-1l-16.4-8.5
		c-2.2-1.1-4.4-1.7-6.6-1.7h-13.9l-8.4-1.6c-0.8-0.2-1.7-0.2-2.5-0.2c-2.6,0-5.1,0.8-7.1,2.4l-10.7,8.3c0,0-1.4,0-2.8-0.1
		c-2.4-1.5-5-2.3-7.7-2.3H54.1c-8,0-13.4,7.4-12,16.5L48,92c1.4,9.1,9,16.5,17,16.5h16.6c0.2,0,0.3,0,0.5,0c2.6,2.4,5.6,4.4,8.5,5.4
		c0.1,0.1,0.1,0.1,0.1,0.2c2.9,3,6.3,5,9.7,5.9c0,0,0,0,0,0c4.5,3.8,10.2,5.1,13.7,5.1c1.3,0,2.5-0.2,3.7-0.5
		c2.6,1.1,6.1,2.1,9.7,2.1c2.5,0,4.7-0.5,6.7-1.5c0.3,0,0.6,0,0.9,0c3.6,0,6.9-1.1,9.6-3.2c2.2-0.2,4.3-0.8,6.2-1.7
		c0.3-0.1,0.6-0.3,0.8-0.5c0.6-0.4,1.2-0.7,1.7-1.1c1.1,0,2.2-0.2,3.2-0.5c6.3-1.7,9.3-6.8,10.5-9.7c0,0,0.1,0,0.1,0h16.6
		c8,0,13.4-7.4,12-16.5l-5.8-38C188.5,44.9,180.9,35.8,172.9,35.8z"/>
	<linearGradient id="SVGID_5_" gradientUnits="userSpaceOnUse" x1="63.3461" y1="113.9387" x2="159.8601" y2="17.4247">
		<stop  offset="0" style="stop-color:#FFFFFF"/>
		<stop  offset="0.4109" style="stop-color:#FDFDFD"/>
		<stop  offset="0.559" style="stop-color:#F6F6F6"/>
		<stop  offset="0.6644" style="stop-color:#EBEBEB"/>
		<stop  offset="0.7492" style="stop-color:#DADADA"/>
		<stop  offset="0.7713" style="stop-color:#D4D4D4"/>
		<stop  offset="0.7778" style="stop-color:#DADADA"/>
		<stop  offset="0.803" style="stop-color:#EBEBEB"/>
		<stop  offset="0.8342" style="stop-color:#F6F6F6"/>
		<stop  offset="0.8781" style="stop-color:#FDFDFD"/>
		<stop  offset="1" style="stop-color:#FFFFFF"/>
	</linearGradient>
	<path fill-rule="evenodd" clip-rule="evenodd" fill="url(#SVGID_5_)" d="M171,34.6h-16.6c-3.4,0-6.6,1.2-9.1,3.2h-1l-15.1-7.4
		c-2-1-4.2-1.5-6.4-1.5H109l-8.2-1.4c-0.8-0.1-1.6-0.2-2.5-0.2c-2.6,0-5.2,0.7-7.5,2.1l-12,7.3c0,0-1.4,0-2.8-0.1
		c-2.2-1.3-4.7-2-7.3-2H52.2c-8,0-14.5,6.5-14.5,14.5v33.3c0,8,6.5,14.5,14.5,14.5h16.6c0.2,0,0.3,0,0.5,0c2.2,2.1,4.9,3.8,7.7,4.7
		c0,0,0.1,0.1,0.1,0.1c2.5,2.6,5.5,4.4,8.8,5.2c0,0,0,0,0,0c4,3.3,9.4,4.5,12.9,4.5c1.3,0,2.6-0.1,3.8-0.4c2.4,0.9,5.8,1.8,9.3,1.8
		c2.5,0,4.8-0.4,7-1.3c0.3,0,0.6,0,0.9,0c3.6,0,7.1-1,10.1-2.8c2.2-0.2,4.4-0.7,6.5-1.5c0.3-0.1,0.6-0.3,0.9-0.4
		c0.7-0.3,1.3-0.7,1.9-1c1.1,0,2.2-0.2,3.3-0.4c6.5-1.5,10.3-6,12-8.5c0,0,0.1,0,0.1,0H171c8,0,14.5-6.5,14.5-14.5V49
		C185.5,41,179,34.6,171,34.6z"/>
	<g>
		<path fill="#746F6F" d="M150.2,80.2l-0.2-27.9H141l-18.1-8.9h-15.1l-9.4-1.6l-15.6,9.5L73.3,51l0.4,29.1l4.5,0.4
			c-0.1,1.3-0.2,3.6,0.1,4.4c0.3,1.1,2.6,3,3.7,3c1,0,4.4-2.1,4.4-2.1s0.4,2.9,0.3,3.8c-0.1,0.9,1.4,3.1,2.8,3.1c1.3,0,4-0.4,4-0.4
			s0.8,2.6,1.7,3.3c0.9,0.8,3.5,1.3,4.2,1c0.5-0.2,3-1.3,4.4-2c1.8,1.3,2.9,2.1,3.1,2.2c0.5,0.3,2.9,1.3,5,1.3l0,0
			c1.4,0,2.5-0.4,3.1-1.3c0.3-0.4,0.5-0.9,0.6-1.4c1.1,0.7,2.6,1.4,4.1,1.4c1.1,0,2.1-0.3,3-1c0.5-0.2,1.8-0.9,2.4-2.3
			c0-0.1,0-0.1,0.1-0.2c1.4,0.8,3.5,1.2,5.6,0.3c0.5-0.3,2.3-1.2,2.9-2.2c0.2-0.4,0.3-0.8,0.4-1.3l0.6,0.4l0.3,0.2
			c0.1,0,2.8,0.7,4.2,0.4c1.5-0.4,2.8-1.8,3.3-2.6c0.3-0.5,0.4-2,0.3-4.2L150.2,80.2z M140.6,87.5c-0.3,0.5-1.1,1.4-1.9,1.6
			c-0.1,0-0.3,0-0.5,0c-0.9,0-2-0.3-2.5-0.4l-2.1-1.4l-8.5-12.7l-1.7,1.2l8.5,12.7l0,0c0.1,0.8,0.1,1.7-0.1,1.9
			c-0.2,0.3-1.1,0.9-1.9,1.3c-0.6,0.2-1.1,0.3-1.7,0.3c-1.7,0-2.9-1.1-3.4-1.5l-8.5-12.7l-1.7,1.2l8.3,12.4l0,0
			c0.3,0.5,0.3,0.9,0.2,1.3c-0.3,0.7-1.1,1.1-1.4,1.2l-0.3,0.2c-0.5,0.4-1.1,0.7-1.8,0.7c-2.3,0-4.6-2.3-4.6-2.3l-0.8-0.8l-7.4-11.1
			l-1.7,1.2l8.4,12.5c0.1,0.6,0,1.1-0.2,1.4c-0.3,0.4-0.9,0.4-1.4,0.4l0,0c-1.6,0-3.7-0.8-4-1c-0.8-0.5-13.7-9.8-22.2-16L85.4,79
			l-9.6-0.8l-0.3-25l7.9,0.2l15.4-9.4l5,0.9l-13.4,11c0,0,0.9,5.2,8.7,3l8-3.3l9.6-0.2l4.9,2.8l18.3,23.5l0.7,2.5
			C140.7,85.5,140.7,87.2,140.6,87.5z"/>
		<path fill="#746F6F" d="M52.2,82.3h16.6V49H52.2V82.3z M60.6,71.5c1.7,0,3.1,1.2,3.1,2.6c0,1.5-1.4,2.6-3.1,2.6
			c-1.7,0-3.1-1.2-3.1-2.6C57.4,72.6,58.8,71.5,60.6,71.5z"/>
		<linearGradient id="SVGID_6_" gradientUnits="userSpaceOnUse" x1="150.2435" y1="78.147" x2="175.1741" y2="53.2164">
			<stop  offset="0" style="stop-color:#746F6F"/>
			<stop  offset="0.1255" style="stop-color:#6F6969"/>
			<stop  offset="0.2892" style="stop-color:#615959"/>
			<stop  offset="0.4734" style="stop-color:#4A3E3F"/>
			<stop  offset="0.5092" style="stop-color:#453839"/>
			<stop  offset="0.5246" style="stop-color:#473A3B"/>
			<stop  offset="0.8364" style="stop-color:#676061"/>
			<stop  offset="1" style="stop-color:#746F6F"/>
		</linearGradient>
		<path fill="url(#SVGID_6_)" d="M171,49h-16.6v33.3H171V49z M165.8,74.1c0,1.5-1.4,2.6-3.1,2.6c-1.7,0-3.1-1.2-3.1-2.6
			c0-1.5,1.4-2.6,3.1-2.6C164.4,71.5,165.8,72.6,165.8,74.1z"/>
	</g>
</g>
<g>
	<path d="M11.3,139.5v-18.3c0-0.6,0.2-1.1,0.6-1.5s0.9-0.6,1.5-0.6h5.9c3.1,0,5.5,0.8,7,2.5c1.5,1.7,2.3,4.3,2.3,7.7
		c0,1.8-0.3,3.5-0.8,4.9c-0.6,1.5-1.5,2.7-2.5,3.4c-0.9,0.7-1.8,1.1-2.8,1.4c-1,0.3-2.4,0.4-4.3,0.4H11.3z M15.4,135.8h3.4
		c1.9,0,3.4-0.5,4.3-1.5c0.9-1,1.3-2.6,1.3-5c0-2.3-0.4-4-1.2-5.1c-0.8-1.1-2.1-1.6-3.8-1.6h-3.9V135.8z"/>
	<path d="M29.8,119.1H32c0.6,0,1,0.2,1.4,0.6c0.4,0.4,0.6,0.9,0.6,1.4v1.2h-4.2V119.1z M29.8,123.7H32c0.6,0,1,0.2,1.4,0.6
		c0.4,0.4,0.6,0.9,0.6,1.4v13.8h-4.2V123.7z"/>
	<path d="M34.2,139.5v-3.1l8.5-9.4h-6c-0.6,0-1-0.2-1.4-0.6c-0.4-0.4-0.6-0.8-0.6-1.4v-1.3h13v3.4l-8.4,9h8.7v3.4H34.2z"/>
	<path d="M48.9,119.1H51c0.6,0,1,0.2,1.4,0.6c0.4,0.4,0.6,0.9,0.6,1.4v1.2h-4.2V119.1z M48.9,123.7H51c0.6,0,1,0.2,1.4,0.6
		c0.4,0.4,0.6,0.9,0.6,1.4v13.8h-4.2V123.7z"/>
	<path d="M67,139.5h-4.1v-9.3v-0.8c0-1-0.3-1.6-0.9-2.1c-0.6-0.4-1.2-0.7-1.9-0.7s-1.3,0.2-1.9,0.7c-0.6,0.4-0.8,1.1-0.8,2.1v10.1
		h-4.2v-9.3c0-2.7,0.7-4.5,2.1-5.4c1.4-0.9,3-1.4,4.7-1.5c0.9,0,1.8,0.1,2.7,0.3s1.7,0.6,2.4,1.2c0.6-0.5,1.3-0.9,2.1-1.1
		c0.8-0.2,1.7-0.3,2.5-0.4c1.7,0,3.3,0.5,4.8,1.4s2.2,2.8,2.2,5.5v9.3h-2.1c-0.6,0-1.1-0.2-1.5-0.6c-0.4-0.4-0.6-0.9-0.6-1.5v-8.1
		c0-1-0.3-1.6-0.9-2.1c-0.6-0.4-1.2-0.7-1.9-0.7c-0.7,0-1.4,0.2-1.9,0.7c-0.6,0.4-0.9,1.1-0.9,2.1v0.8V139.5z"/>
	<path d="M79.8,138.1c-0.8-0.7-1.4-1.7-1.8-2.9c-0.4-1.2-0.5-2.5-0.5-3.8c0-1.1,0.1-2.1,0.4-3.2c0.3-1.1,0.8-2,1.4-2.7
		c1-1.2,2.4-1.9,4-2.1c1.6-0.2,3.1-0.1,4.4,0.4c1.5,0.6,2.6,1.6,3.3,3.1c0.7,1.3,1,2.8,1,4.6c0,1.3-0.1,2.4-0.4,3.3
		c-0.3,0.9-0.6,1.7-1.1,2.3c-1,1.3-2.2,2.1-3.6,2.4c-1.3,0.4-2.6,0.4-4,0.1S80.6,138.8,79.8,138.1z M82.6,127.6
		c-0.8,0.9-1.2,2.3-1.1,4.1c0.1,1.8,0.4,3.1,1,3.8c0.2,0.3,0.7,0.6,1.2,0.8c0.6,0.2,1.2,0.2,1.8,0.1c0.6-0.2,1.2-0.6,1.6-1.3
		c0.5-0.7,0.7-1.9,0.8-3.4c0-1.4-0.2-2.5-0.7-3.2c-0.5-0.7-1-1.2-1.6-1.4c-0.6-0.2-1.2-0.2-1.8,0C83.4,127.1,82.9,127.3,82.6,127.6z
		"/>
	<path d="M92.3,134.3h4c0,0.8,0.3,1.4,0.9,1.8c0.6,0.4,1.4,0.6,2.4,0.6c0.7,0,1.3-0.1,1.8-0.4c0.5-0.3,0.7-0.7,0.7-1.1
		c0-0.7-0.8-1.2-2.5-1.6c-0.7-0.1-1.2-0.2-1.6-0.4c-2.1-0.5-3.5-1.1-4.2-1.8c-0.8-0.7-1.2-1.7-1.2-2.9c0-1.5,0.6-2.8,1.7-3.7
		c1.2-0.9,2.7-1.4,4.6-1.4c2.1,0,3.7,0.5,4.9,1.4c1.1,1,1.8,2.3,1.8,3.9h-2.6c-0.8,0-1.3-0.3-1.7-1c-0.2-0.2-0.3-0.3-0.5-0.5
		c-0.5-0.4-1.1-0.5-2-0.5c-0.8,0-1.4,0.1-1.8,0.4c-0.4,0.2-0.5,0.6-0.5,1.1c0,0.6,1,1.2,3.1,1.6c0.2,0.1,0.4,0.1,0.6,0.2
		c0.2,0,0.3,0.1,0.5,0.1c2,0.5,3.4,1.1,4.2,1.8c0.8,0.7,1.1,1.7,1.1,2.9c0,1.7-0.6,3.1-1.9,4c-1.2,0.9-3,1.3-5.3,1.3
		c-2.3,0-3.9-0.5-5.1-1.4c-1.1-0.9-1.7-2.2-1.7-4V134.3z"/>
	<path d="M124.8,134.6h3c-0.4,1.7-1.3,2.9-2.5,3.8c-1.2,0.9-2.8,1.4-4.6,1.4c-2.3,0-4-0.7-5.3-2.2c-1.3-1.4-1.9-3.5-1.9-6.1
		c0-2.5,0.6-4.5,1.8-5.9c1.3-1.5,3-2.2,5.3-2.2c2.4,0,4.2,0.7,5.5,2.1c1.3,1.5,1.9,3.5,1.9,6.1c0,0.2,0,0.3,0,0.4c0,0.1,0,0.2,0,0.2
		c0,0.2,0,0.3-0.1,0.4h-10.3c0,1.2,0.3,2.1,0.9,2.7c0.5,0.6,1.3,1,2.3,1c0.7,0,1.2-0.1,1.7-0.4c0.1,0,0.2-0.1,0.3-0.2
		c0.1-0.1,0.2-0.2,0.3-0.3c0-0.1,0.2-0.3,0.4-0.5C124,134.7,124.4,134.6,124.8,134.6z M117.7,130h6.1c-0.1-1.1-0.4-1.9-0.8-2.4
		c-0.5-0.6-1.2-0.8-2.2-0.8c-0.9,0-1.6,0.3-2.1,0.8C118,128.2,117.7,129,117.7,130z"/>
	<path d="M135.2,129.3c0-3.3,0.9-6,2.6-7.9c1.9-1.9,4.3-2.9,7.3-2.9c3,0,5.4,1,7.3,2.9c1.8,2,2.7,4.6,2.7,7.9c0,3.3-0.9,5.9-2.7,7.8
		c-1.8,1.9-4.3,2.9-7.3,2.9c-3.1,0-5.5-1-7.3-2.9C136,135.2,135.2,132.6,135.2,129.3z M139.4,129.3c0,2.3,0.5,4,1.5,5.2
		c1,1.2,2.4,1.8,4.2,1.8c1.8,0,3.2-0.6,4.2-1.8c1-1.3,1.5-3,1.5-5.2c0-2.2-0.5-4-1.5-5.3c-1-1.2-2.4-1.8-4.2-1.8
		c-1.8,0-3.2,0.6-4.2,1.8C139.9,125.2,139.4,127,139.4,129.3z"/>
	<path d="M156,139.5v-16.3c0-1.4,0.4-2.5,1.1-3.2c0.7-0.7,1.9-1,3.5-1c0.4,0,0.7,0,1,0.1c0.4,0,0.8,0,1,0.1v3.3h-1.1
		c-0.6,0-1,0.1-1.2,0.2c-0.2,0.2-0.3,0.5-0.3,1v1.1h2.6v0.9c0,0.6-0.2,1.1-0.6,1.5c-0.4,0.4-0.9,0.6-1.4,0.6h-0.6v11.9H156z"/>
	<path d="M173.9,134.6h3c-0.4,1.7-1.3,2.9-2.5,3.8c-1.2,0.9-2.8,1.4-4.6,1.4c-2.3,0-4-0.7-5.3-2.2c-1.3-1.4-1.9-3.5-1.9-6.1
		c0-2.5,0.6-4.5,1.8-5.9c1.3-1.5,3-2.2,5.3-2.2c2.4,0,4.2,0.7,5.5,2.1c1.3,1.5,1.9,3.5,1.9,6.1c0,0.2,0,0.3,0,0.4c0,0.1,0,0.2,0,0.2
		c0,0.2,0,0.3-0.1,0.4h-10.3c0,1.2,0.3,2.1,0.9,2.7c0.5,0.6,1.3,1,2.3,1c0.7,0,1.2-0.1,1.7-0.4c0.1,0,0.2-0.1,0.3-0.2
		c0.1-0.1,0.2-0.2,0.3-0.3c0-0.1,0.2-0.3,0.4-0.5C173.1,134.7,173.4,134.6,173.9,134.6z M166.8,130h6.1c-0.1-1.1-0.4-1.9-0.8-2.4
		c-0.5-0.6-1.2-0.8-2.2-0.8c-0.9,0-1.6,0.3-2.1,0.8C167.1,128.2,166.8,129,166.8,130z"/>
	<path d="M177.8,139.5v-7.7c0-1.5,0.2-2.8,0.7-3.9c0.5-1,1.1-1.9,1.9-2.5c0.8-0.6,1.6-1,2.6-1.3c1-0.3,2-0.4,3.1-0.4
		c0.1,0,0.2,0,0.3,0c0.1,0,0.2,0,0.3,0v4.2h-1.4c-1.1,0-2,0.3-2.6,0.8c-0.6,0.6-0.8,1.4-0.8,2.6v8.1H177.8z"/>
	<path d="M194.1,139.5c-1.3,0.1-2.7,0.1-4.2-0.1c-1.5-0.1-2.3-1.1-2.3-2.9v-17.5h2.1c0.5,0,1,0.2,1.4,0.6c0.4,0.4,0.6,0.9,0.6,1.4
		v2.7h2.4v0.8c0,0.6-0.2,1.1-0.6,1.5c-0.4,0.4-0.9,0.6-1.4,0.6h-0.4v8.8c0,0.7,0.4,1,1.2,1h1.2V139.5z"/>
	<path d="M204.6,138.8c-0.8,0.4-1.7,0.7-2.6,0.8c-0.9,0.1-1.8,0.1-2.5,0.1c-1.4,0-2.7-0.4-3.7-1.2s-1.6-2-1.6-3.8
		c0-1.7,0.5-2.9,1.5-3.6c1-0.7,2.2-1.2,3.7-1.4c0.2,0,0.4,0,0.7-0.1c0.3-0.1,0.6-0.1,1-0.1c1.7-0.2,2.6-0.8,2.6-1.5
		c0-0.6-0.3-1-0.9-1.2c-0.6-0.2-1.2-0.3-1.7-0.3c-0.6,0-1,0.1-1.5,0.2c-0.4,0.2-0.8,0.5-1,0.9h-4c0.2-1.2,0.7-2.2,1.7-3
		c1.1-0.9,2.6-1.4,4.6-1.4c2.2,0,3.9,0.4,5,1.1c1.1,0.8,1.7,1.9,1.7,3.3v5.4c0,1.6-0.3,2.8-0.9,3.7
		C206,137.8,205.4,138.5,204.6,138.8z M203.6,131.5c-0.6,0.3-1.3,0.5-2.3,0.8l-1.4,0.3c-0.7,0.2-1.2,0.5-1.5,0.8
		c-0.3,0.4-0.4,0.9-0.4,1.3c0,0.6,0.2,1.1,0.5,1.4c0.4,0.3,0.9,0.5,1.5,0.5c1.1,0,2-0.3,2.6-1c0.6-0.6,1-1.5,1-2.6V131.5z"/>
	<path d="M207.7,134.3h4c0,0.8,0.3,1.4,0.9,1.8c0.6,0.4,1.4,0.6,2.4,0.6c0.7,0,1.3-0.1,1.8-0.4c0.5-0.3,0.7-0.7,0.7-1.1
		c0-0.7-0.8-1.2-2.5-1.6c-0.7-0.1-1.2-0.2-1.6-0.4c-2.1-0.5-3.5-1.1-4.2-1.8c-0.8-0.7-1.2-1.7-1.2-2.9c0-1.5,0.6-2.8,1.7-3.7
		c1.2-0.9,2.7-1.4,4.6-1.4c2.1,0,3.7,0.5,4.9,1.4c1.1,1,1.8,2.3,1.8,3.9h-2.6c-0.8,0-1.3-0.3-1.7-1c-0.2-0.2-0.3-0.3-0.5-0.5
		c-0.5-0.4-1.1-0.5-2-0.5c-0.8,0-1.4,0.1-1.8,0.4c-0.4,0.2-0.5,0.6-0.5,1.1c0,0.6,1,1.2,3.1,1.6c0.2,0.1,0.4,0.1,0.6,0.2
		c0.2,0,0.3,0.1,0.5,0.1c2,0.5,3.4,1.1,4.2,1.8c0.8,0.7,1.1,1.7,1.1,2.9c0,1.7-0.6,3.1-1.9,4c-1.2,0.9-3,1.3-5.3,1.3
		c-2.3,0-3.9-0.5-5.1-1.4c-1.1-0.9-1.7-2.2-1.7-4V134.3z"/>
</g>
</svg>
