<?xml version="1.0" encoding="utf-8"?>
<!-- Generator: Adobe Illustrator 19.1.0, SVG Export Plug-In . SVG Version: 6.00 Build 0)  -->
<svg version="1.1" id="Camada_1" xmlns="http://www.w3.org/2000/svg" xmlns:xlink="http://www.w3.org/1999/xlink" x="0px" y="0px"
	 viewBox="0 0 234.3 156.4" enable-background="new 0 0 234.3 156.4" xml:space="preserve">
<g>
	<g>
		<defs>
			<rect id="SVGID_176_" width="234.3" height="156.4"/>
		</defs>
		<clipPath id="SVGID_2_">
			<use xlink:href="#SVGID_176_"  overflow="visible"/>
		</clipPath>
		<g clip-path="url(#SVGID_2_)">
			<rect x="-11.2" y="-50.2" fill-rule="evenodd" clip-rule="evenodd" fill="#CDCDCD" width="256.7" height="256.7"/>
			<g>
				<rect x="-11.2" y="-50.2" fill-rule="evenodd" clip-rule="evenodd" fill="#E7DDD7" width="256.7" height="256.7"/>
				<g>
					<polygon fill-rule="evenodd" clip-rule="evenodd" fill="#FFFFFF" points="208,-50.2 160.4,69.2 168.7,72.7 217.7,-50.2 					
						"/>
					<path fill="#FFFFFF" d="M176.8,63.4c2.6,13.2,7.6,37,23.6,62.5c10,16,24.4,32.7,45.1,48v11.8c-24.9-17.1-41.8-36.3-53.3-54.6
						c-16.9-27-22.2-52-24.9-65.8L176.8,63.4z"/>
					<polygon fill-rule="evenodd" clip-rule="evenodd" fill="#FFFFFF" points="245.5,-5.7 -11.2,201.2 -11.2,206.5 -3.4,206.5 
						245.5,5.8 					"/>
					<rect x="160.4" y="-50.2" fill-rule="evenodd" clip-rule="evenodd" fill="#FFFFFF" width="9" height="256.7"/>
					<rect x="-11.2" y="60.6" fill-rule="evenodd" clip-rule="evenodd" fill="#FFFFFF" width="256.7" height="9"/>
					<ellipse fill-rule="evenodd" clip-rule="evenodd" fill="#FFFFFF" cx="164.8" cy="65.1" rx="26.4" ry="26.5"/>
					<ellipse fill-rule="evenodd" clip-rule="evenodd" fill="#AFD08A" cx="164.8" cy="65.1" rx="17.8" ry="17.9"/>
					<polygon fill-rule="evenodd" clip-rule="evenodd" fill="#FFFFFF" points="109.7,115.3 114.7,107.9 11.2,62.1 6.1,69.6 					"/>
					<polygon fill-rule="evenodd" clip-rule="evenodd" fill="#FFFFFF" points="164.8,23.3 165.1,14.3 -11.2,-20.9 -11.2,-11.9 					
						"/>
					<polygon fill-rule="evenodd" clip-rule="evenodd" fill="#FFFFFF" points="-11.2,52.2 38.6,-3.2 35.2,-11.6 -11.2,40.1 					"/>
					<polygon fill-rule="evenodd" clip-rule="evenodd" fill="#FFFFFF" points="4.8,31.5 11.2,23.6 -11.2,18.9 -11.2,28.2 					"/>
					<polygon fill-rule="evenodd" clip-rule="evenodd" fill="#FFFFFF" points="62.6,-2.1 70.1,2.1 117,-50.2 105.7,-50.2 					"/>
					<polygon fill-rule="evenodd" clip-rule="evenodd" fill="#FFFFFF" points="58.3,63.4 66.1,67.9 71.7,0.1 63.9,-4.3 					"/>
					<polygon fill-rule="evenodd" clip-rule="evenodd" fill="#FFFFFF" points="70.5,30.1 69.7,20 6.1,20 -3.3,30.1 					"/>
					<polygon fill-rule="evenodd" clip-rule="evenodd" fill="#FFFFFF" points="166.7,32.8 167.9,22.6 64.7,19.9 63.6,30.1 					"/>
					<polygon fill-rule="evenodd" clip-rule="evenodd" fill="#FFFFFF" points="86.7,66.9 96.6,65.1 96.2,27.4 86.3,30.3 					"/>
					<polygon fill-rule="evenodd" clip-rule="evenodd" fill="#FFFFFF" points="118.5,65.9 128.4,64.1 128,26.4 118.1,29.3 					"/>
					<polygon fill-rule="evenodd" clip-rule="evenodd" fill="#FFFFFF" points="166.9,157.1 166.5,148.1 75.9,135.1 76.3,144.1 					
						"/>
					<polygon fill-rule="evenodd" clip-rule="evenodd" fill="#FFFFFF" points="64,173.1 75.3,176.5 110.8,144.5 99.4,141.1 					"/>
					<polygon fill-rule="evenodd" clip-rule="evenodd" fill="#FFFFFF" points="196.3,132.7 205.6,137 245.5,69.2 245.5,67.2 
						237.2,63.4 					"/>
					<polygon fill-rule="evenodd" clip-rule="evenodd" fill="#FFFFFF" points="208.5,206.5 202.9,130.2 193,131.1 198.6,206.5 					
						"/>
					<polygon fill-rule="evenodd" clip-rule="evenodd" fill="#FFFFFF" points="200.7,138.9 200.3,126.4 163.1,144.4 163.5,156.9 
											"/>
					<polygon fill-rule="evenodd" clip-rule="evenodd" fill="#FFFFFF" points="166.5,115.9 168.8,106 105.6,106 104.3,115.9 					
						"/>
					<polygon fill-rule="evenodd" clip-rule="evenodd" fill="#FFFFFF" points="185.3,12.2 185.9,22.2 223.2,20.5 230.8,12.4 					
						"/>
					<polygon fill-rule="evenodd" clip-rule="evenodd" fill="#AFD08A" points="76.2,142.3 93.4,146.6 69.8,167.9 48.1,165 					"/>
					<polygon fill-rule="evenodd" clip-rule="evenodd" fill="#AFD08A" points="8.7,30.1 -11.2,52.2 -11.2,60.6 58.5,60.6 61.1,29.5 
											"/>
					<polygon fill-rule="evenodd" clip-rule="evenodd" fill="#D7CAB9" points="96.3,30.9 96.5,60.6 118.4,60.6 118.2,31.5 					"/>
					<polygon fill-rule="evenodd" clip-rule="evenodd" fill="#D7CAB9" points="28.4,-4 16.9,8.8 -11.2,3 -11.2,1.9 -2.3,-10.1 					
						"/>
					<polygon fill-rule="evenodd" clip-rule="evenodd" fill="#FFFFFF" points="245.5,103.9 224.2,91.4 219.8,99.3 245.5,114.3 					
						"/>
					<polygon fill-rule="evenodd" clip-rule="evenodd" fill="#FFFFFF" points="226.3,167.9 233.8,172.8 245.5,150.7 245.5,131.5 
											"/>
					<polygon fill-rule="evenodd" clip-rule="evenodd" fill="#D7CAB9" points="75.3,-3.6 95.5,-26.1 132,-19.1 118.3,5 					"/>
					<polygon fill-rule="evenodd" clip-rule="evenodd" fill="#D7CAB9" points="160.2,22.4 70,20 71.3,4.6 					"/>
				</g>
			</g>
			<g>
				<path fill-rule="evenodd" clip-rule="evenodd" fill="#BFB6B1" d="M139.3,89c-11.2,0-22.8,3.5-25.9,7.8
					c-2.7,3.7,1.9,6.8,10.4,7.6c1.1,0.1,0.8,0.4,0.6,0.9l-4.7,11.2l11.1-11c0.5-0.4,0.8-1,1.9-1c9.7-0.8,18.7-3.9,21.3-7.6
					C157.1,92.5,150.5,89,139.3,89z"/>
				<g>
					<path fill-rule="evenodd" clip-rule="evenodd" fill="#D3D3D3" d="M151.2,99.2v-8.4c-1.4-0.6-3.3-1.1-5.4-1.4v12.3
						C147.9,101,149.8,100.2,151.2,99.2z"/>
					<path fill-rule="evenodd" clip-rule="evenodd" fill="#D3D3D3" d="M136.7,103.9l-23.4-3.3c1.4,1.9,5.2,3.3,10.5,3.8
						c1.1,0.1,0.8,0.4,0.6,0.9l-0.9,2.2l4.6,0.7l2.7-2.7c0.5-0.4,0.8-1,1.9-1C134,104.2,135.4,104.1,136.7,103.9z"/>
				</g>
			</g>
			<path fill-rule="evenodd" clip-rule="evenodd" fill="#E1384B" d="M119.7,19.4c-15.2,0-27.5,12.3-27.5,27.5
				c0,13.1,9.2,24.1,21.4,26.8c1.6,0.4,1.5,1.5,1.6,3.2l4.4,39.5l4.4-39c0.2-1.6,0.1-3.4,1.6-3.7C138,71,147.2,60,147.2,46.9
				C147.2,31.7,134.9,19.4,119.7,19.4z"/>
			<path fill-rule="evenodd" clip-rule="evenodd" fill="#FFFFFF" d="M119.7,71.1c13.3,0,24.2-10.9,24.2-24.2
				c0-13.3-10.9-24.2-24.2-24.2c-13.3,0-24.2,10.9-24.2,24.2C95.5,60.2,106.3,71.1,119.7,71.1z"/>
			<polygon fill-rule="evenodd" clip-rule="evenodd" fill="#FFFFFF" points="-11.2,152.2 -11.2,162.8 81.7,99.9 78.3,91.6 			"/>
			<g>
				<path fill-rule="evenodd" clip-rule="evenodd" fill="#FFFFFF" d="M66.7,156.3c4.9,9.3,10.3,18.4,14.6,28
					c3.3,7.3,6.2,14.7,8.7,22.2H38.7c0.7-2.2,1.2-4.3,1.7-6.5c2.3-9.9,3.9-24.1-0.2-35c-13.1-21.3-29.6-40.3-49.3-56.2L-11.2,74
					c29.2,19.8,53.8,44.8,72.7,74l1.2-0.3l3.9,8.5C66.7,156.3,66.7,156.3,66.7,156.3z"/>
				<path fill="#7DC4C4" d="M58.2,158.6c0.1,0.1,0.1,0.3,0.2,0.4c5.5,9,10.3,18.3,14.5,27.7c2.9,6.6,5.5,13.2,7.9,19.8H69.6
					c-1.9-5.3-4-10.6-6.3-15.9c-0.3,5.3-1.1,10.7-2.2,15.9H48.9c0.3-1,0.5-2,0.7-3c3.3-14.5,3.7-29.6-1.1-41.3
					c-14.5-23.8-33.7-46-58.3-64.6l-0.8-12.8C18.8,105.7,41.5,131.2,58.2,158.6L58.2,158.6z"/>
			</g>
		</g>
	</g>
	
		<text transform="matrix(1 0 0 1 62.4624 146.4353)" stroke="#FFFFFF" stroke-miterlimit="10" font-family="'Harabara'" font-size="29.6798px">Como Chegar</text>
	<g>
		<path d="M80.3,139.5c-0.2,2.3-1.1,4.1-2.6,5.4c-1.6,1.3-3.7,1.9-6.3,1.9c-3,0-5.3-0.9-6.9-2.7c-1.6-1.7-2.4-4.3-2.4-7.7
			c0-3.5,0.8-6.1,2.4-7.8c1.7-1.8,4.1-2.7,7.2-2.7c2.5,0,4.6,0.6,6.1,1.9c1.4,1.2,2.2,3,2.4,5.2h-2.5c-0.9,0-1.6-0.4-2-1.2
			c-0.3-0.5-0.6-0.9-1-1.3c-0.8-0.6-1.8-0.9-3.1-0.9c-1.8,0-3.2,0.6-4.1,1.7c-0.9,1.2-1.4,2.9-1.4,5.1c0,2.2,0.5,3.8,1.4,5
			c0.9,1.2,2.2,1.8,4,1.8c1.2,0,2.3-0.3,3.1-0.9c0.7-0.6,1.3-1.5,1.6-2.8H80.3z"/>
		<path d="M83,145c-0.8-0.7-1.4-1.6-1.7-2.8c-0.3-1.2-0.5-2.4-0.5-3.7c0-1,0.1-2.1,0.4-3.1c0.3-1,0.7-1.9,1.4-2.6
			c1-1.2,2.3-1.8,3.9-2.1c1.6-0.2,3-0.1,4.3,0.4c1.5,0.6,2.6,1.6,3.2,3c0.7,1.3,1,2.8,1,4.5c0,1.2-0.1,2.3-0.4,3.2
			c-0.3,0.9-0.6,1.6-1,2.3c-0.9,1.3-2.1,2.1-3.5,2.4c-1.3,0.3-2.6,0.4-3.9,0.1C84.8,146.2,83.8,145.7,83,145z M85.8,134.8
			c-0.8,0.9-1.2,2.2-1.1,4c0.1,1.8,0.4,3,1,3.7c0.2,0.3,0.6,0.6,1.2,0.8c0.6,0.2,1.2,0.2,1.8,0.1c0.6-0.2,1.1-0.6,1.6-1.3
			c0.5-0.7,0.7-1.8,0.8-3.4c0-1.4-0.2-2.4-0.7-3.1c-0.4-0.7-1-1.1-1.5-1.3c-0.6-0.2-1.2-0.2-1.7,0C86.5,134.3,86.1,134.6,85.8,134.8
			z"/>
		<path d="M109.1,146.4h-4v-9v-0.8c0-0.9-0.3-1.6-0.8-2c-0.6-0.4-1.2-0.6-1.9-0.6c-0.7,0-1.3,0.2-1.9,0.6c-0.5,0.4-0.8,1.1-0.8,2
			v9.9h-4.1v-9c0-2.6,0.7-4.4,2.1-5.3c1.4-0.9,2.9-1.4,4.6-1.4c0.9,0,1.8,0.1,2.6,0.3c0.8,0.2,1.6,0.6,2.3,1.2
			c0.6-0.5,1.3-0.9,2.1-1.1c0.8-0.2,1.6-0.3,2.5-0.4c1.7,0,3.3,0.4,4.7,1.3c1.4,0.9,2.1,2.7,2.1,5.4v9h-2c-0.6,0-1.1-0.2-1.4-0.6
			c-0.4-0.4-0.6-0.8-0.6-1.4v-7.9c0-0.9-0.3-1.6-0.8-2c-0.6-0.4-1.2-0.6-1.9-0.6c-0.7,0-1.3,0.2-1.9,0.6c-0.6,0.4-0.8,1.1-0.8,2v0.8
			V146.4z"/>
		<path d="M121.5,145c-0.8-0.7-1.4-1.6-1.7-2.8c-0.3-1.2-0.5-2.4-0.5-3.7c0-1,0.1-2.1,0.4-3.1c0.3-1,0.7-1.9,1.4-2.6
			c1-1.2,2.3-1.8,3.9-2.1c1.6-0.2,3-0.1,4.3,0.4c1.5,0.6,2.6,1.6,3.2,3c0.7,1.3,1,2.8,1,4.5c0,1.2-0.1,2.3-0.4,3.2
			c-0.3,0.9-0.6,1.6-1,2.3c-0.9,1.3-2.1,2.1-3.5,2.4c-1.3,0.3-2.6,0.4-3.9,0.1C123.3,146.2,122.3,145.7,121.5,145z M124.3,134.8
			c-0.8,0.9-1.2,2.2-1.1,4c0.1,1.8,0.4,3,1,3.7c0.2,0.3,0.6,0.6,1.2,0.8c0.6,0.2,1.2,0.2,1.8,0.1c0.6-0.2,1.1-0.6,1.6-1.3
			c0.5-0.7,0.7-1.8,0.8-3.4c0-1.4-0.2-2.4-0.7-3.1c-0.4-0.7-1-1.1-1.5-1.3c-0.6-0.2-1.2-0.2-1.7,0
			C125,134.3,124.6,134.6,124.3,134.8z"/>
		<path d="M158.6,139.5c-0.2,2.3-1.1,4.1-2.6,5.4c-1.6,1.3-3.7,1.9-6.3,1.9c-3,0-5.3-0.9-6.9-2.7c-1.6-1.7-2.4-4.3-2.4-7.7
			c0-3.5,0.8-6.1,2.4-7.8c1.7-1.8,4.1-2.7,7.2-2.7c2.5,0,4.6,0.6,6.1,1.9c1.4,1.2,2.2,3,2.4,5.2h-2.5c-0.9,0-1.6-0.4-2-1.2
			c-0.3-0.5-0.6-0.9-1-1.3c-0.8-0.6-1.8-0.9-3.1-0.9c-1.8,0-3.2,0.6-4.1,1.7c-0.9,1.2-1.4,2.9-1.4,5.1c0,2.2,0.5,3.8,1.4,5
			c0.9,1.2,2.2,1.8,4,1.8c1.2,0,2.3-0.3,3.1-0.9c0.7-0.6,1.3-1.5,1.6-2.8H158.6z"/>
		<path d="M169.1,135.4c-0.6-0.8-1.4-1.2-2.4-1.2c-1.1,0-1.9,0.4-2.5,1.2c-0.6,0.8-0.9,1.8-0.9,3.2v7.9h-3.9v-19.9h2
			c0.5,0,1,0.2,1.4,0.6c0.4,0.4,0.6,0.9,0.6,1.4v4.6c0.7-1.2,1.7-1.9,3-2.2c1.3-0.3,2.5-0.2,3.7,0.2c1.1,0.5,2,1.2,2.7,2.2
			c0.7,1,1.1,2.4,1.1,4.2v9h-3.9v-8c0-0.6,0-1.1-0.1-1.6C169.7,136.4,169.5,135.9,169.1,135.4z"/>
		<path d="M185.2,141.7h2.9c-0.4,1.6-1.2,2.9-2.4,3.7c-1.2,0.9-2.7,1.3-4.5,1.3c-2.2,0-3.9-0.7-5.2-2.1c-1.2-1.4-1.9-3.4-1.9-6
			c0-2.5,0.6-4.4,1.8-5.8c1.2-1.4,3-2.1,5.2-2.1c2.3,0,4.1,0.7,5.4,2.1c1.2,1.4,1.9,3.4,1.9,6c0,0.2,0,0.3,0,0.4c0,0.1,0,0.2,0,0.2
			c0,0.2,0,0.3-0.1,0.4h-10c0,1.2,0.3,2.1,0.9,2.7c0.5,0.6,1.3,0.9,2.3,0.9c0.7,0,1.2-0.1,1.7-0.4c0.1,0,0.2-0.1,0.3-0.2
			c0.1-0.1,0.2-0.2,0.3-0.3c0-0.1,0.2-0.3,0.4-0.5C184.4,141.8,184.8,141.7,185.2,141.7z M178.3,137.2h5.9c-0.1-1-0.3-1.8-0.8-2.3
			c-0.5-0.5-1.2-0.8-2.1-0.8c-0.9,0-1.5,0.3-2.1,0.8C178.6,135.4,178.3,136.2,178.3,137.2z"/>
		<path d="M199.2,145.5v-1c-0.7,1.1-1.6,1.8-2.8,2c-1.2,0.3-2.3,0.2-3.5-0.3s-2.2-1.3-3-2.6c-0.8-1.3-1.2-2.9-1.2-5
			c0-2.4,0.6-4.3,1.7-5.8c1.1-1.5,2.9-2.2,5.3-2.2c1.9,0,3.6,0.5,5.2,1.5c1.6,1,2.4,2.9,2.4,5.6v8.2c0,2.7-0.8,4.5-2.4,5.5
			c-1.6,1-3.3,1.5-5.2,1.5c-3.6,0-5.8-1.7-6.6-5h4.2c0.3,0.5,0.8,1,1.4,1.2c0.6,0.3,1.3,0.4,1.9,0.2c0.6-0.1,1.2-0.5,1.7-1.1
			C198.8,147.7,199.1,146.7,199.2,145.5z M192.6,138.8c0,2.7,0.8,4.1,2.3,4.4c1.5,0.3,2.7-0.1,3.4-1.1c0.3-0.4,0.6-1.1,0.8-2
			c0.2-0.9,0.2-1.8,0-2.7c-0.1-0.9-0.5-1.7-1-2.4c-0.5-0.7-1.2-1-2.2-1c-1.3,0-2.2,0.5-2.7,1.4C192.8,136.5,192.6,137.6,192.6,138.8
			z"/>
		<path d="M213.7,145.8c-0.8,0.4-1.7,0.7-2.6,0.8c-0.9,0.1-1.7,0.1-2.4,0.1c-1.4,0-2.6-0.4-3.7-1.1c-1-0.8-1.6-2-1.6-3.7
			c0-1.6,0.5-2.8,1.4-3.5c0.9-0.7,2.2-1.2,3.6-1.4c0.2,0,0.4,0,0.7-0.1c0.3-0.1,0.6-0.1,0.9-0.1c1.7-0.2,2.6-0.7,2.6-1.5
			c0-0.6-0.3-1-0.9-1.1c-0.6-0.2-1.2-0.3-1.7-0.3c-0.5,0-1,0.1-1.4,0.2c-0.4,0.2-0.7,0.4-0.9,0.9h-3.9c0.2-1.2,0.7-2.2,1.6-3
			c1-0.9,2.5-1.3,4.5-1.3c2.2,0,3.8,0.4,4.9,1.1c1.1,0.8,1.7,1.9,1.7,3.2v5.3c0,1.5-0.3,2.8-0.8,3.6
			C215.1,144.8,214.5,145.4,213.7,145.8z M212.8,138.7c-0.5,0.3-1.3,0.5-2.3,0.8l-1.3,0.3c-0.7,0.2-1.2,0.4-1.5,0.8
			c-0.3,0.4-0.4,0.9-0.4,1.3c0,0.6,0.2,1,0.5,1.4c0.3,0.3,0.8,0.5,1.5,0.5c1.1,0,1.9-0.3,2.6-0.9c0.6-0.6,0.9-1.5,0.9-2.6V138.7z"/>
		<path d="M217.1,146.4V139c0-1.5,0.2-2.8,0.7-3.8c0.4-1,1.1-1.8,1.8-2.5c0.7-0.6,1.6-1,2.6-1.3s2-0.4,3-0.4c0.1,0,0.2,0,0.3,0
			s0.2,0,0.3,0v4.1h-1.3c-1.1,0-2,0.3-2.5,0.8c-0.5,0.5-0.8,1.4-0.8,2.6v7.9H217.1z"/>
	</g>
</g>
</svg>
