<?xml version="1.0" encoding="utf-8"?>
<!-- Generator: Adobe Illustrator 18.1.1, SVG Export Plug-In . SVG Version: 6.00 Build 0)  -->
<svg version="1.1" id="Camada_1" xmlns="http://www.w3.org/2000/svg" xmlns:xlink="http://www.w3.org/1999/xlink" x="0px" y="0px"
	 viewBox="0 0 40 40.4" enable-background="new 0 0 40 40.4" xml:space="preserve">
<g>
	<g>
		<defs>
			<path id="SVGID_1_" d="M30.5,40.2h-21c-5.2,0-9.5-4.2-9.5-9.5v-21c0-5.2,4.2-9.5,9.5-9.5h21c5.2,0,9.5,4.2,9.5,9.5v21
				C40,35.9,35.8,40.2,30.5,40.2z"/>
		</defs>
		<use xlink:href="#SVGID_1_"  overflow="visible" fill="#FFFFFF"/>
		<clipPath id="SVGID_2_">
			<use xlink:href="#SVGID_1_"  overflow="visible"/>
		</clipPath>
		<path clip-path="url(#SVGID_2_)" fill="#FFFFFF" d="M30.5,40.2h-21c-5.2,0-9.5-4.2-9.5-9.5v-21c0-5.2,4.2-9.5,9.5-9.5h21
			c5.2,0,9.5,4.2,9.5,9.5v21C40,35.9,35.8,40.2,30.5,40.2z"/>
		<polygon opacity="0.16" clip-path="url(#SVGID_2_)" fill="#BE921E" points="4.1,31.5 34,56.2 67.6,42.3 35.8,6.4 29.7,14 
			17.5,28.4 13.2,30.6 		"/>
	</g>
	<path fill="#BE921E" d="M5.3,7.3c0,0,4.1,7.2,14.3,7.5c0,0-1.5-4.8,3.4-7.5s8.2,1.1,8.2,1.1s1.8,0.3,4.4-1.4c0,0-0.4,1.8-2.5,3.6
		c0,0,1.4,0.4,3.6-0.9c0,0-0.8,2-3.6,3.5c0,0,1.2,5.8-3,12.3s-12.8,8.3-12.8,8.3s-6.8,1.3-14-2.8c0,0,5.1,0.8,9.5-3.1
		c0,0-4.8-0.3-6-4.8c0,0,0.9,0.4,2.8-0.2c0,0-5.5-1.1-5.3-6.7c0,0,1.1,1,3.2,0.7C7.5,16.9,2.3,13.4,5.3,7.3z"/>
</g>
</svg>
