<?xml version="1.0" encoding="utf-8"?>
<!-- Generator: Adobe Illustrator 18.1.1, SVG Export Plug-In . SVG Version: 6.00 Build 0)  -->
<svg version="1.1" id="Camada_1" xmlns="http://www.w3.org/2000/svg" xmlns:xlink="http://www.w3.org/1999/xlink" x="0px" y="0px"
	 viewBox="0 0 40 40.4" enable-background="new 0 0 40 40.4" xml:space="preserve">
<g>
	<g>
		<defs>
			<path id="SVGID_5_" d="M30.5,40.2h-21c-5.2,0-9.5-4.2-9.5-9.5v-21c0-5.2,4.2-9.5,9.5-9.5h21c5.2,0,9.5,4.2,9.5,9.5v21
				C40,35.9,35.8,40.2,30.5,40.2z"/>
		</defs>
		<clipPath id="SVGID_2_">
			<use xlink:href="#SVGID_5_"  overflow="visible"/>
		</clipPath>
		<path clip-path="url(#SVGID_2_)" fill="#FFFFFF" d="M30.5,40.2h-21c-5.2,0-9.5-4.2-9.5-9.5v-21c0-5.2,4.2-9.5,9.5-9.5h21
			c5.2,0,9.5,4.2,9.5,9.5v21C40,35.9,35.8,40.2,30.5,40.2z"/>
		<polygon opacity="0.16" clip-path="url(#SVGID_2_)" fill="#BE921E" points="54.6,33 29.2,5.8 27.4,5.8 27.4,7.7 25.9,5.8 24,5.8 
			23.9,7.4 17.7,2.5 15.6,2.5 15.1,4 12.9,2.5 10.8,2.5 13.3,10.4 13.3,15.7 15.8,18 7.3,20.2 7.6,26.6 5.6,33.8 11.8,51.9 
			52.2,51.9 		"/>
	</g>
	<g>
		<path fill="#BE921E" d="M5.4,23.2c0,0-0.2-2.8,1.5-4.5c1-1,2.9-1.2,5.3-1.3c4-0.1,14.6,0,16.8,0c2.3,0,4.2,0.9,4.8,2.4
			c0.5,1.6,0.9,4.4,0.8,7.6c-0.1,3.3-0.2,5.9-0.5,6.8c-0.3,0.9-0.6,2.6-3.1,3.2s-11.5,0.4-11.5,0.4s-8.5,0-9.7-0.3s-3.6-0.4-4.3-3.7
			C5,31,5.4,23.2,5.4,23.2z M7.7,22.7h2V34h2V22.7h2.1v-1.9H7.7V22.7z M13.6,32.2c0,1,0.3,1.8,1.3,1.9c1.1,0.1,2-1.2,2-1.2v1h1.9
			v-9.8h-1.9v7.5c0,0-0.3,0.4-0.9,0.7c-0.6,0.3-0.5-0.7-0.5-0.7v-7.5h-1.9C13.6,24.1,13.6,31.3,13.6,32.2z M20.3,34h1.8l0-1l0.7,0.8
			c0,0,0.8,0.8,1.9,0.1c1.2-0.7,0.8-3,0.8-4.5s0-2.2-0.1-3.5s-0.8-1.8-1.6-1.8c-0.8,0-1.8,1.1-1.8,1.1v-4.3h-1.7V34z M22.1,32
			c0,0,0.2,0.3,0.7,0.5c1,0.3,1-0.8,1-0.8s0-4.7,0-5.2s-0.1-0.8-0.6-0.8s-1,0.4-1,0.4V32z M26.8,26.7c0,0,0,3.6,0,4.6s0.5,2,1.4,2.5
			s1.8,0.4,2.9-0.1c1.1-0.5,1.1-2,1.1-2v-1.2h-1.9l0,0.8c0,0,0.1,1-0.8,1.1c-0.9,0.1-0.9-1.1-0.9-1.1v-2h3.6c0,0,0-2.8-0.3-3.7
			c-0.3-0.9-0.8-1.1-1.5-1.5c-0.7-0.3-1.8,0-1.8,0C26.9,24.6,26.8,26.7,26.8,26.7z M28.7,27.8h1.7v-1.4c0,0,0-0.8-0.8-0.8
			s-0.8,0.9-0.8,0.9V27.8z"/>
		<g>
			<polygon fill="#BE921E" points="15.6,2.5 14.2,7.4 12.9,2.5 10.8,2.5 13.3,10.4 13.3,15.7 15.2,15.7 15.2,10.2 17.7,2.5 			"/>
			<path fill="#BE921E" d="M27.4,5.8v7.5c0,0-0.2,0.5-0.9,0.8c-0.7,0.3-0.6-0.8-0.6-0.8V5.8H24c0,0,0,7.8,0,8.5
				c0,0.7,0.6,1.7,1.5,1.5c1-0.2,1.8-1.2,1.8-1.2v1h1.9V5.8H27.4z"/>
			<path fill="#BE921E" d="M19.9,5.6c-2.6,0-2.6,2.7-2.6,2.7v4.2c0,0,0,1.3,0.2,1.7c0.9,1.9,2.4,1.7,2.4,1.7c2.5,0,2.7-2.6,2.7-2.6
				s0.1-2.2,0-4.9C22.5,5.5,19.9,5.6,19.9,5.6z M20.7,12.9c0,0.5,0,1.3-0.8,1.3c-0.8,0-0.8-0.8-0.8-1.3c0-0.2,0-4.5,0-4.5s0-1,0.8-1
				c0.8,0,0.8,0.9,0.8,0.9S20.7,12.7,20.7,12.9z"/>
		</g>
	</g>
	<path fill="none" d="M9.7,40.2h20.6c5.4,0,9.7-4.3,9.7-9.7V9.9c0-5.4-4.3-9.7-9.7-9.7H9.7C4.3,0.2,0,4.5,0,9.9v20.6
		C0,35.8,4.3,40.2,9.7,40.2z"/>
</g>
</svg>
